<?xml version="1.0" encoding="iso-8859-1"?>
<!-- Generator: Adobe Illustrator 17.1.0, SVG Export Plug-In . SVG Version: 6.00 Build 0)  -->
<!DOCTYPE svg PUBLIC "-//W3C//DTD SVG 1.1//EN" "http://www.w3.org/Graphics/SVG/1.1/DTD/svg11.dtd">
<svg version="1.1" xmlns="http://www.w3.org/2000/svg" xmlns:xlink="http://www.w3.org/1999/xlink" x="0px" y="0px"
	 viewBox="0 0 1010 1010" style="enable-background:new 0 0 1010 1010;" xml:space="preserve">
<g id="data-analysis">
	<path id="label_12_" style="fill:#000000;" d="M505,0c278.914,0,505,226.093,505,505.003C1010,783.869,783.914,1010,505,1010
		C226.098,1010,0,783.869,0,505.003C0,226.093,226.098,0,505,0z"/>
	<g id="icon_12_">
		<g>
			<path style="fill:#FFFFFF;" d="M458.098,388.46c41.179,0,79.437-3.527,111.491-9.517c7.282-2.352,14.784-3.943,22.427-4.899
				c42.833-10.692,70.018-26.358,70.018-43.849c0-32.164-91.293-58.278-203.936-58.278c-112.641,0-203.941,26.114-203.941,58.278
				C254.158,362.334,345.457,388.46,458.098,388.46z"/>
			<path style="fill:#FFFFFF;" d="M455.368,504.954v-29.739h31.214c3.809-22.635,13.632-43.274,28.392-60.164
				c-27.987,2.303-50.046,2.549-56.876,2.549c-18.323,0-145.707-1.605-203.941-40.763v69.888
				C254.158,478.608,343.987,504.538,455.368,504.954z"/>
			<path style="fill:#FFFFFF;" d="M458.098,621.534c41.223,0,79.547-3.527,111.62-9.528c-23.939-7.766-45.368-22.586-60.666-43.078
				c-8.12-10.877-14.128-22.867-18.183-35.741c-16.101,0.82-28.055,0.943-32.771,0.943c-18.323,0-145.707-1.593-203.941-40.739
				v69.877C254.158,595.408,345.457,621.534,458.098,621.534z"/>
			<path style="fill:#FFFFFF;" d="M657.667,612.52c-59.956,36.524-181.68,38.154-199.569,38.154
				c-18.323,0-145.707-1.593-203.941-40.75v69.858c0,32.164,91.299,58.302,203.941,58.302c112.642,0,203.936-26.138,203.936-58.302
				v-53.409l-0.11-0.159C658.855,622.122,657.526,617.272,657.667,612.52z"/>
		</g>
		<g id="_x33_0_2_">
			<g>
				<path style="fill:#394145;" d="M754.827,659.082l-49.005-65.633c-1.721-2.266-4.912-2.744-7.184-1.041l-5.836,4.372
					l-4.085-5.451l-5.052-6.785l2.407-1.8c1.556-1.176,1.886-3.393,0.729-4.937l-5.224-7.019
					c37.039-36.524,42.373-95.646,10.399-138.492c-34.963-46.788-101.245-56.379-148.015-21.434
					c-23.866,17.809-37.976,43.775-41.559,71.137h20.914c3.442-21.03,14.6-40.786,33.034-54.554
					c18.813-14.036,41.546-19.156,63.079-16.045c21.557,3.124,41.877,14.49,55.963,33.304c14.024,18.813,19.12,41.523,16.015,63.079
					c-3.123,21.545-14.478,41.878-33.291,55.939c-18.813,14.049-41.528,19.143-63.073,16.02
					c-21.557-3.11-41.883-14.453-55.938-33.266c-7.251-9.701-12.065-20.443-14.667-31.528h-21.055
					c2.854,15.433,9.1,30.487,19.12,43.911c32.587,43.641,92.402,54.909,138.247,27.914l4.648,6.221l0.392,0.49
					c1.145,1.568,3.356,1.899,4.924,0.722l2.437-1.8l4.593,6.148l4.532,6.076l-5.849,4.385c-2.241,1.691-2.731,4.875-1.035,7.14
					l49.018,65.658c1.654,2.229,4.887,2.67,7.141,1.029l22.23-16.634C756.058,664.52,756.511,661.336,754.827,659.082z"/>
			</g>
			<path style="fill:#394145;" d="M650.404,446.187c-0.992-2.462-3.319-4.055-6.118-4.055c-2.688,0.061-5.095,1.789-5.965,4.312
				l-18.464,52.031l-9.168-19.757c-1.047-2.265-3.331-3.724-6.1-3.724l0,0c-2.591,0.123-4.844,1.74-5.738,4.14l-15.513,40.628
				l-6.314-23.015c-0.808-2.768-3.344-4.727-6.259-4.727h-98.6v12.885h93.7l10.276,37.285c0.759,2.694,3.111,4.555,5.224,4.617
				l0.961,0.087c2.689,0,5.095-1.678,6.02-4.14l17.105-44.767l9.382,20.246c1.078,2.254,3.356,3.724,6.161,3.724l0,0
				c2.615-0.147,4.869-1.825,5.763-4.287l18.005-50.732L666.149,521l6.455-1.237v-16.866L650.404,446.187z"/>
		</g>
	</g>
</g>
<g id="Layer_1">
</g>
</svg>
