<?xml version="1.0" ?><svg enable-background="new 0 0 64 64" version="1.1" viewBox="0 0 64 64" xml:space="preserve" xmlns="http://www.w3.org/2000/svg" xmlns:xlink="http://www.w3.org/1999/xlink"><g id="Glyph_copy_2"><path d="M61,6.167H3c-1.65,0-3,1.35-3,3v45.667c0,1.65,1.35,3,3,3h58c1.65,0,3-1.35,3-3V9.167C64,7.517,62.65,6.167,61,6.167z    M25.253,13.042h31.863v5.322H21.777L25.253,13.042z M37.226,30.513v-3.869l13.851,5.99v3.304l-13.851,6.032v-3.897l9.666-3.8   L37.226,30.513z M35.945,23.724l-5.053,20.874h-2.849l4.997-20.874H35.945z M26.761,38.058v3.897l-13.838-6.018v-3.332l13.838-5.99   v3.925l-9.652,3.69L26.761,38.058z M17.27,13.985c0.91,0,1.648,0.737,1.648,1.646c0,0.909-0.738,1.646-1.648,1.646   s-1.648-0.737-1.648-1.646C15.621,14.722,16.359,13.985,17.27,13.985z M12.901,13.985c0.91,0,1.648,0.737,1.648,1.646   c0,0.909-0.738,1.646-1.648,1.646c-0.91,0-1.648-0.737-1.648-1.646C11.253,14.722,11.991,13.985,12.901,13.985z M8.532,13.985   c0.91,0,1.648,0.737,1.648,1.646c0,0.909-0.738,1.646-1.648,1.646s-1.648-0.737-1.648-1.646   C6.884,14.722,7.622,13.985,8.532,13.985z M2.242,54.074l4.525-3.437h7.954l-4.51,3.437H2.242z M13.674,54.074l4.525-3.437H45.8   l4.525,3.437H13.674z M53.788,54.074l-4.51-3.437h7.954l4.526,3.437H53.788z"/></g></svg>