<?xml version="1.0" ?><!DOCTYPE svg  PUBLIC '-//W3C//DTD SVG 1.1//EN'  'http://www.w3.org/Graphics/SVG/1.1/DTD/svg11.dtd'><svg height="512px" style="enable-background:new 0 0 512 512;" version="1.1" viewBox="0 0 512 512" width="512px" xml:space="preserve" xmlns="http://www.w3.org/2000/svg" xmlns:xlink="http://www.w3.org/1999/xlink"><g id="_x35_25_x2C__key__x2C__keyboard_x2C__education_x2C__graduation"><g><path d="M426,201c11.05,0,20,8.95,20,20s-8.95,20-20,20s-20-8.95-20-20S414.95,201,426,201z" style="fill:#FF7979;"/><path d="M410.25,232.25c0-11.05,8.95-20,20-20c6.371,0,12.031,2.985,15.693,7.623    C445.355,209.351,436.669,201,426,201c-11.05,0-20,8.95-20,20c0,4.679,1.617,8.972,4.307,12.377    C410.286,233.002,410.25,232.631,410.25,232.25z" style="fill:#D65B5B;"/><path d="M466,331v160H46V331h320H466z" style="fill:#D7DEED;"/><polygon points="57.25,342.75 377.25,342.75 466,342.75 466,331 366,331 46,331 46,491 57.25,491   " style="fill:#AFB9D2;"/><path d="M426,91l-49.64,51.4c-0.011-11.47-0.08-22.83,0.109-35.13C292.29,72.13,216.48,73.98,146,103.61    c-0.17,11.14-0.1,22.45-0.02,33.76l-0.22,0.72L96,91l166.64-70L426,91z" style="fill:#57606F;"/><g><g><g><path d="M376.354,119.723c-0.021,4.911-0.017,9.725-0.008,14.511c0.014-4.716,0.047-9.512,0.123-14.464       C376.432,119.754,376.393,119.739,376.354,119.723z" style="fill:#414A56;"/></g><g><polygon points="262.64,33.5 417.462,99.841 426,91 262.64,21 96,91 105.148,99.657      " style="fill:#414A56;"/></g></g></g><path d="M276,158.89c-43.43-1.37-86.75,4.67-130,16.81c0.19-12.65,0.08-25.49-0.02-38.33    c-0.08-11.31-0.15-22.62,0.02-33.76c70.48-29.63,146.29-31.48,230.47,3.66c-0.189,12.3-0.12,23.66-0.109,35.13    c0.02,10.72-0.021,21.53-0.36,33.3C342.59,165.35,309.27,159.94,276,158.89z" style="fill:#57606F;"/><path d="M156.092,172.992c0.029-8.997-0.042-18.058-0.112-27.122c-0.08-11.31-0.15-22.62,0.02-33.76    c67.66-28.444,140.237-31.266,220.411-0.359c0.017-1.481,0.035-2.974,0.059-4.481C292.29,72.13,216.48,73.98,146,103.61    c-0.17,11.14-0.1,22.45-0.02,33.76c0.1,12.84,0.21,25.68,0.02,38.33C149.364,174.756,152.728,173.862,156.092,172.992z" style="fill:#414A56;"/><rect height="20" width="20" x="406" y="441"/><rect height="20" width="20" x="406" y="401"/><rect height="20" width="20" x="406" y="361"/><rect height="20" width="20" x="366" y="441"/><rect height="20" width="20" x="366" y="401"/><rect height="20" width="20" x="366" y="361"/><rect height="20" width="20" x="326" y="441"/><rect height="20" width="20" x="326" y="401"/><rect height="20" width="20" x="326" y="361"/><rect height="20" width="140" x="166" y="441"/><rect height="20" width="20" x="286" y="401"/><rect height="20" width="20" x="286" y="361"/><rect height="20" width="20" x="246" y="401"/><rect height="20" width="20" x="246" y="361"/><rect height="20" width="20" x="206" y="401"/><rect height="20" width="20" x="206" y="361"/><rect height="20" width="20" x="166" y="401"/><rect height="20" width="20" x="166" y="361"/><rect height="20" width="20" x="126" y="441"/><rect height="20" width="20" x="126" y="401"/><rect height="20" width="20" x="126" y="361"/><rect height="20" width="20" x="86" y="441"/><rect height="20" width="20" x="86" y="401"/><rect height="20" width="20" x="86" y="361"/><path d="M376.359,147.4c-1.25,0-2.502-0.466-3.473-1.403c-1.986-1.918-2.041-5.084-0.123-7.07l44.604-46.186L262.62,26.431    L105.007,92.64l42.125,39.865c0.104,0.025,0.208,0.053,0.311,0.084c2.641,0.808,4.126,3.604,3.318,6.244l-0.22,0.72    c-0.506,1.655-1.833,2.93-3.505,3.372c-1.67,0.443-3.455-0.013-4.712-1.203l-49.76-47.09c-1.228-1.162-1.785-2.865-1.482-4.527    c0.302-1.663,1.424-3.06,2.982-3.714l166.64-70c1.251-0.525,2.661-0.52,3.906,0.014l163.36,70    c1.511,0.647,2.606,1.996,2.932,3.607s-0.163,3.279-1.305,4.462l-49.64,51.4C378.976,146.889,377.669,147.4,376.359,147.4z"/><path d="M146,180.7c-1.091,0-2.166-0.357-3.05-1.038c-1.25-0.962-1.973-2.459-1.95-4.037c0.183-12.191,0.084-24.799-0.011-36.992    l-0.01-1.224c-0.07-9.902-0.157-22.221,0.021-33.875c0.03-1.985,1.232-3.764,3.062-4.533    c36.072-15.165,73.226-22.854,110.43-22.854c40.078,0,81.766,8.919,123.903,26.509c1.888,0.788,3.105,2.646,3.073,4.691    c-0.153,9.992-0.136,19.509-0.118,28.713l0.01,6.334c0.019,10.207-0.013,21.327-0.362,33.45c-0.045,1.562-0.818,3.014-2.09,3.923    c-1.272,0.909-2.898,1.17-4.388,0.708c-32.136-9.955-65.336-15.536-98.678-16.588c-3.967-0.125-7.999-0.188-11.985-0.188    c-37.558,0-76.756,5.657-116.506,16.815C146.907,180.639,146.452,180.7,146,180.7z M150.957,106.969    c-0.117,10.551-0.04,21.446,0.023,30.365l0.009,1.221c0.079,10.054,0.16,20.388,0.084,30.573    c38.432-10.241,76.341-15.429,112.784-15.429c4.092,0,8.229,0.065,12.3,0.193c32.061,1.012,63.986,6.099,95.006,15.133    c0.194-9.492,0.212-18.352,0.197-26.617l-0.01-6.33c-0.016-8.199-0.031-16.646,0.073-25.482    c-39.844-16.226-79.169-24.451-116.932-24.451C219.662,86.146,184.845,93.151,150.957,106.969z"/><path d="M426,206c-2.762,0-5-2.239-5-5V91c0-2.761,2.238-5,5-5s5,2.239,5,5v110C431,203.761,428.762,206,426,206z"/><path d="M426,246c-13.785,0-25-11.215-25-25s11.215-25,25-25s25,11.215,25,25S439.785,246,426,246z M426,206    c-8.271,0-15,6.729-15,15s6.729,15,15,15s15-6.729,15-15S434.271,206,426,206z"/><path d="M366,336c-2.762,0-5-2.238-5-5v-35c0-8.015-3.12-15.549-8.785-21.215C346.549,269.12,339.015,266,331,266H106    c-8.017,0-15.551-3.12-21.216-8.784C79.12,251.551,76,244.017,76,236c0-16.542,13.458-30,30-30h145c11.028,0,20-8.972,20-20v-55    c0-2.761,2.238-5,5-5s5,2.239,5,5v55c0,16.542-13.458,30-30,30H106c-11.028,0-20,8.972-20,20c0,5.345,2.08,10.369,5.855,14.145    S100.655,256,106,256h225c10.686,0,20.731,4.16,28.285,11.715C366.84,275.269,371,285.314,371,296v35    C371,333.762,368.762,336,366,336z"/><path d="M466,496H46c-2.761,0-5-2.238-5-5V331c0-2.762,2.239-5,5-5h420c2.762,0,5,2.238,5,5v160C471,493.762,468.762,496,466,496z     M51,486h410V336H51V486z"/></g></g><g id="Layer_1"/></svg>