<svg height="400" viewBox="0 0 400 400" width="400" xmlns="http://www.w3.org/2000/svg" xmlns:xlink="http://www.w3.org/1999/xlink"><linearGradient id="a" gradientUnits="userSpaceOnUse" x1="94.08" x2="129.91" y1="365.27" y2="365.27"><stop offset="0" stop-color="#eb5757"/><stop offset="1" stop-color="#f2994a"/></linearGradient><linearGradient id="b" x1="320.11" x2="330.41" xlink:href="#a" y1="56.56" y2="56.56"/><g fill="#e1e3e5"><path d="m41.48 356.44a6.25 6.25 0 0 0 -8.63-4.93 6.8 6.8 0 0 0 -2.61 1.69 10.24 10.24 0 0 0 -1 1.31 7 7 0 0 0 -.8 1.08c-1.39 2.52-.79 6.45 2.05 7.79a8.24 8.24 0 0 0 5.77.61 7 7 0 0 0 5.22-7.55z"/><path d="m30.4 196.74a4.58 4.58 0 0 0 -5.09-2.07c-2.61.66-4 3.07-5.17 5.27l-.24.56h.1s0-.05.06-.07l-.06.07h.24a.55.55 0 0 1 -.38.16l-.18.42a1.07 1.07 0 0 1 .16-.41c-.11 0-.17-.06-.16-.11a2.76 2.76 0 0 0 -.46.19 3.13 3.13 0 0 0 -1.08 3.57c.56 2 3.11 3.31 5.08 3.24a7.7 7.7 0 0 0 5.73-2.8c1.97-2.31 3.05-5.12 1.45-8.02z"/><path d="m19.9 200.5c-.17 0-.24 0-.26.09l.24-.05z"/><path d="m19.88 200.54v.11l.09-.12z"/><path d="m20.2 200.53h-.26c-.17.25.06.14.26 0z"/><path d="m69.13 230.32c-.23-3-4-5.09-6.3-2.61-3 3.23-7.16 6.25-9.28 10.19a9.22 9.22 0 0 0 -.84 5.86c-1.75.35-3.33.58-4.65 1.85a.55.55 0 0 0 0 .78c1.69 1.75 4.92 2.24 7.72 1.63a5.19 5.19 0 0 0 1.3.39c5 .8 12.65-7.27 10.65-12.33a9.68 9.68 0 0 0 1.4-5.76z"/><path d="m89.87 243a4.16 4.16 0 0 0 -5.19-2.82 5.36 5.36 0 0 0 -.6.24 3.18 3.18 0 0 0 -2.31.83c-1.15 1-1.3 2.56-1.38 4a3.5 3.5 0 0 0 1.75 3 3.71 3.71 0 0 0 3.57 0 4.36 4.36 0 0 0 1.5-1.21 3.77 3.77 0 0 0 .75-.2 3.3 3.3 0 0 0 1.91-3.84z"/><path d="m241.1 239.48-.53.17c-1.08-2.65-3.07-3.79-6.44-4.53-4.28-.94-8-2.9-12.08-4.36a95 95 0 0 0 -5.62-10.95c-2.47-4.57-5-9.1-7.5-13.66-2.36-4.33-4.73-8.69-7.46-12.8-2.25-3.35-4.33-7.35-7.17-10.35a33.76 33.76 0 0 0 -2.25-5c-.77-1.41-3.2-.45-2.65 1.12.08.2.15.41.23.61a52.93 52.93 0 0 0 2.81 6.63 1.24 1.24 0 0 0 .56.57c.7 3 1.86 6 2.76 8.85a111.09 111.09 0 0 0 5.74 13.88c2.13 4.47 4.3 8.92 6.68 13.27 1.39 2.55 2.74 5.16 4.26 7.64a4.58 4.58 0 0 0 .09 3.41 3.48 3.48 0 0 0 4.18 2.35 4 4 0 0 0 5.81-1 12.93 12.93 0 0 0 2.86 1.48c3.48 1.3 11.17 1.25 11.6 5.79.12 1.23 1.32 2.69 2.74 2.09a14.54 14.54 0 0 0 2.94-1.5c1.85-1.19.73-4.41-1.56-3.71z"/><path d="m262.25 32.67c-.76-4.86-8-3.38-8.23 1.11-.13 2.81.37 5.63.21 8.44.13 1.11.11 1.19 0 .24 0-.93-.49-1.1-1.58-.52a27.84 27.84 0 0 0 -4.34.42c-4.35.42-11 .18-14.75 2.66a1.34 1.34 0 0 0 -.47 1.8c1.75 2.73 5 3 8.05 3 4.55 0 9.15-.33 13.68-.74 3.25-.29 6-1.15 7.22-4.49 1.22-3.54.78-8.3.21-11.92z"/><path d="m122.17 199.56c-1.78 1.51-2.5 4.37-2.28 6.61a2.87 2.87 0 0 0 1.49 2.61 1.31 1.31 0 0 0 1.86-.66c.3-1 .49-2 .71-3 .3-1.37 1-1.83 1.7-2.92 1.63-2.39-1.43-4.38-3.48-2.64z"/><path d="m143.38 196.08a.8.8 0 0 0 -1.17.47c-.75 3.75 1.6 7.65 2.11 11.39.58 4.3.27 9.17-2.26 12.85-4.95 7.16-16 6-23.07 3.57a.37.37 0 0 0 -.41.53c5 7.86 19.37 6.13 25.3.28a18.1 18.1 0 0 0 4.94-13.47c-.19-4.76-1.45-12.58-5.44-15.62z"/><path d="m189.81 219.1c-1.58 1.5-3 3.16-4.45 4.76l-2.07 2.28c-.39.43-.78.85-1.19 1.26l-.22-.79c-1.54-.83-2.55-2-4.32-2.58a12.17 12.17 0 0 0 -5.3-.34c-3.43.45-7.9 3-10.34-.43-1.26-1.77-1.88-4-4.5-2.93a.45.45 0 0 0 -.1.8c1.14.69.24 5 .82 6.28a6.77 6.77 0 0 0 3.47 3.44 11.17 11.17 0 0 0 5.73.92c2.46-.17 5.4-1.52 7.77-.34 2 1 3 2.88 5.37 3.52a7 7 0 0 0 5.63-.8c2.08-1.35 3.46-3.75 5-5.66s3.22-3.82 4.15-6.23c1.19-3.19-3.26-5.21-5.45-3.16z"/><path d="m161.44 189.7c-1.44-2-5.38-1.6-5.16 1.4a29.24 29.24 0 0 0 2 7.33c.5 1.49.62 1.62-.5 2.67a2.57 2.57 0 0 1 -.83.81.62.62 0 0 0 -.84.23c-2 4.57 4.41 4.43 6.9 2.61 4.55-3.36.99-11.43-1.57-15.05z"/><path d="m173.2 192.94c-2.79-2.5-6.43.59-5 3.84.37.84 1.55 2.6 1.36 3.56a3.29 3.29 0 0 1 -.86.63 4.41 4.41 0 0 0 -1.88 1.47 1.37 1.37 0 0 0 0 1.42c2.14 2.78 7 2.24 8.65-.79s.21-7.92-2.27-10.13z"/><path d="m185.14 187.17c-3.09-4.68-10.17-.59-7.54 4.41a23.77 23.77 0 0 1 2.56 5.62 3.08 3.08 0 0 1 .12 1.89c.1-.39-1.27.52-1.48.63-1.38.67-1 2.47 0 3.22a5.64 5.64 0 0 0 8.95-2.62c1.6-4.52-.09-9.32-2.61-13.15z"/><path d="m159.73 255.89c-22 .19-44.08-.14-66.08.53-10.41.31-20.61 2.64-31 3-6 .22-12.19-.49-18.28-.44a1.23 1.23 0 0 0 -.4-.6c-2-1.6-4.26-1-6.72-.68-1.74.25-3.49.48-5.22.76a2.53 2.53 0 0 0 -4.85-.22c-1.49 4.49-.18 10.78.07 15.45.3 5.72.51 11.44.66 17.17s.31 11.44.47 17.16c.05 1.61.05 3.33.12 5.05-.55-.88-1.87-2.59-1.73-3.18.39-1.68.13 12.74 1.83 9.93a6.25 6.25 0 0 0 .52-1.11 15.66 15.66 0 0 0 1.17 3.48.24.24 0 0 0 .41 0c1.74-4.06 1.38-9.05 1.33-13.39q-.11-8.19-.19-16.38c-.05-5.21-.11-10.41 0-15.61l.15-8.58c0-1.22-.14-2.67-.24-4.11 10.56-.39 21.1.66 31.64.26 10.36-.39 20.61-2.16 31-2.52 21.77-.74 43.58-.61 65.36-.81 3.31-.05 3.31-5.19-.02-5.16z"/><path d="m145.75 285.27c-2.67-1.13-5.75-.38-6.65 2.7a13.14 13.14 0 0 0 -.2 4.29s.07.67.08 1.27c-.73-.28-3.64.91-4.38 1.06-1.55.33-3 .85-4.55 1.22a2.72 2.72 0 0 0 -1.91 3.36c1.24 3.05 4.08 3.81 7.16 4.21s6.49.49 9.41-1a8.94 8.94 0 0 0 4.94-7.9c.15-2.99-.75-7.87-3.9-9.21z"/><path d="m113.58 336.88c0-6.43.07-12.85-.07-19.29a129.2 129.2 0 0 0 -1.8-18.82 62.5 62.5 0 0 0 -2.44-9.9c-.74-2.14-1.26-4.3-3.29-5.52a.45.45 0 0 0 -.6.16 5.48 5.48 0 0 0 -.71 1.35c0-.15-.08-.31-.13-.46a.76.76 0 0 0 -1.46 0 27.6 27.6 0 0 0 -1.33 5.64 50 50 0 0 0 -7.08 1c-4.18.67-8.36 1.71-12.56 2.19-.9.11-1 1.44 0 1.44 6 0 13.11 1.33 19.23 0-.09 1.86-.13 3.71-.2 5.49-.07 2.14-.15 4.28-.22 6.42-3.44-.23-7.24.66-10.49 1-4.28.43-8.47.91-12.72 1.59-.49.08-.5.93 0 1a117.52 117.52 0 0 0 12.72 1.08c3.14.11 7 .64 10.32.12-.07 1.71-.13 3.42-.19 5.13-.06 1.88-.13 3.76-.19 5.64-2.79.22-5.59.26-8.38.49-5 .42-10 1.05-15 1.94-.71.13-.45 1.11.16 1.18a146.64 146.64 0 0 0 17.15.94c1.62 0 3.83.29 5.9.22-.11 4-.18 8.05-.16 12.07-2.37-.55-5.11 0-7.51.18-3.92.21-7.85.37-11.78.56-.69 0-.9 1.08-.17 1.25a88.92 88.92 0 0 0 11.21 1.89c2.55.26 5.73 1 8.31.26 0 .8 0 1.61.06 2.41a2 2 0 0 0 -1.16 1.47c.35-1.47-4.45.35-5.27.79-2.42 1.32-3.3 3.7-6.15 4.52-5.33 1.55-11.36.14-16.75 1.74a.11.11 0 0 0 0 .21 21.43 21.43 0 0 0 4.77 1.67l-4.31.17c-3.68.16-10.59-.89-13.27 2.12a.15.15 0 0 0 0 .19c2.23 3.4 8.87 3.09 12.53 3.48a160.44 160.44 0 0 0 18.6.78c3.82 0 4.53-4.95 2.17-6.7a12.5 12.5 0 0 0 3.28-2.63c1.78-1.71 3.83-1.94 5.89-2.58a2.67 2.67 0 0 0 4.36.61c-.69 3.58 4.2 6.4 6.17 2.66 2.9-5.6 2.58-10.97 2.56-17.15z"/><path d="m137 370.91c-.79-5.26-1.94-13.82-6.68-17-1.4-.92-2.92.1-3.46 1.41-1.57 3.85.54 9.41 1.23 13.35.18 1 1.32 5.07.79 5.71-.76.93-5.12 1.09-6.25 1.27a139.36 139.36 0 0 1 -14.85 1.37c-4.66.21-10.07-.47-14.53 1a.85.85 0 0 0 -.2 1.53c4.84 3.38 12.77 3.65 18.51 3.93 6.09.29 13.11.26 19-1.26 5.59-1.4 7.25-6.05 6.44-11.31z"/><path d="m385.18 226.31a.31.31 0 0 0 -.52.22 29.16 29.16 0 0 0 -8.33-9.38.8.8 0 0 0 -1.17.9c.95 3.54 2.95 6.78 4.65 10a67.4 67.4 0 0 1 5.09 12.45 45.51 45.51 0 0 1 2 12.58 40.54 40.54 0 0 1 -.42 6.7c-.26 1.57-.75 3-.85 4.58a26.19 26.19 0 0 1 -5.19 7.7l-.09.09a34.32 34.32 0 0 0 -7.1-19.64 25.88 25.88 0 0 0 -3.62-6.68c-.37-.48-1.17-.07-1.16.48.19 8.15 1 15.86.21 24.05a77.12 77.12 0 0 1 -5.92 23.13c-2.82 6.73-6.91 12.69-10.77 18.84-3.16 5-8.7 17.78-16.13 16.77-3.58-.49-5.29 4.66-1.54 5.61a13.23 13.23 0 0 0 3.31.42 17.2 17.2 0 0 0 5.47 1.07c-1 .29-2 .56-3 .8a230.88 230.88 0 0 1 -23.82 3.9c-16 1.93-31.88.66-47.83-1a1 1 0 0 0 -1.13 1.26c-.28-.19-.57-.39-.85-.61-.05-.15-.1-.3-.16-.44 7.44-3.13 17-2.7 23.82-7.05a124.08 124.08 0 0 0 15.33.33c7.38-.22 15.29-.58 22.49-2.25 2-.47 2.42-2.51 1.78-4a22.58 22.58 0 0 0 3.1-1.93c4-2.95 9-5.61 11.91-9.71.95-1.35-.87-2.94-2.18-2.18-4.51 2.64-7.77 6-12.89 7.66-4.41 1.44-8.69 3.14-13.27 4-5.5 1.06-11 .76-16.59.85s-10.82.63-16.23 1.09a231.32 231.32 0 0 1 -32.67.62c-10.65-.62-21.22-2.5-31.86-3.09-3.11-1-6.19-2.08-9.38-2.83-4-1-8.12-1.43-12.15-2.3a4.4 4.4 0 0 0 -5.47 4.17c-.79 9.38-3.46 18.6-5.56 27.74s-3.15 18.5-4.86 27.74c-.07.37.46.67.65.28 2.71-5.55 5.61-10.88 8.14-16.42-1.32 4.72-2.78 9.41-4.22 14.09-.15.51.57 1 .94.55a144 144 0 0 0 14-20.59c2.87-5 5.5-11.36 5.7-17.5a60.61 60.61 0 0 0 18.16 2.72 4.62 4.62 0 0 0 2.37-.71c1.67.39 3.35.73 5 1.05l-.22.13a0 0 0 0 0 0 .06c3.47 2.91 8.33 4 13.17 4.12 1.69 5 1.7 10.67 2.68 15.87 1.12 5.94 2.49 12.73 5.62 17.94a4.16 4.16 0 0 0 1.87 1.67c.13.62.26 1.24.38 1.86a1.12 1.12 0 0 0 2.15 0c.13-.51.26-1 .38-1.54a4.78 4.78 0 0 0 1.34-.49c0 .36.05.71.09 1.07a1.84 1.84 0 0 0 3.09 1.28c6.52-6.6 9.46-18.58 8.87-28.53 5.75 1.3 11.7 1.25 17.12-1.16a4 4 0 0 0 2.48-3.8c3.59 2.31 8.5 3 12.7 3.44a7.56 7.56 0 0 0 -2 2.12 3.84 3.84 0 0 0 .59 4.59 8.89 8.89 0 0 0 2.05 1.53 5.67 5.67 0 0 0 .83 2.17c.5 5.05 1 10.1 1.39 15.16a5.52 5.52 0 0 0 3 4.7c1.32 3.44 7.25 4.13 8-.21 1.11-6.49 2.16-13 3.41-19.48a5.13 5.13 0 0 0 -.33-3l1.14-.69c4.39-2.72 8.94-5.07 13.43-7.61 2.55-1.44 5-3 7.39-4.72 1.26-.28 2.52-.59 3.77-.93 3.43-1 7.17-2.19 10-4.44 3.28-2.63 4.2-5.32 5.27-9.2.91-3.31-2.51-5-5-3.73l-.08-.13a19.19 19.19 0 0 1 -4.94 2.28 31.54 31.54 0 0 0 4.12-4.5c4.44-5.7 9.16-12.52 10.56-19.83a79 79 0 0 0 4.47-7.87 51.84 51.84 0 0 0 4.49-14c4.44-1.13 9-4.62 11.69-7.56a31.37 31.37 0 0 0 7.66-15.49c2.2-12.41-.64-28.06-9.82-37.21zm-134.31 121.9a13.1 13.1 0 0 0 -1.53-1.54c.58 0 1.14-.09 1.7-.15-.04.56-.12 1.13-.17 1.69z"/><path d="m374.16 175.91a8.8 8.8 0 0 0 -4.67 3.82c-.41.6-1.73 3.23-2 3.31-.6.15-2.15-1-2.8-1.18a3.22 3.22 0 0 0 -2.41.31.77.77 0 0 0 -.15 1.19c2.32 2.72 2.78 6.72 7.36 6.56 4.75-.16 9.45-5.72 9.83-10.09a4.08 4.08 0 0 0 -5.16-3.92z"/><path d="m367.85 118.13c-1.09-2.78-5.44-2.6-5.47.75s1.62 8.49-1.24 11.28c-2.18 2.13-6.68 2.55-9.51 3.13s-5.74.58-8.25 1.79a12.77 12.77 0 0 0 -3 2.17c-.41.37-1.2 1.44-2 2.13-.1-1.06 0-2.32-.06-2.94a1.55 1.55 0 0 0 -1.11-1.46 30.78 30.78 0 0 1 -3.87-1.17.81.81 0 0 0 -.9 1.17 5.36 5.36 0 0 0 2.79 2.45c-.19 2.66-.49 6.57 3.17 6.09 2.16-.28 3.74-2.33 5.48-3.41 2.64-1.62 6.21-1.26 9.19-1.64 4.77-.6 10.16-1.06 13.36-5.1 3.34-4.21 3.31-10.44 1.42-15.24z"/><path d="m293.83 84.87c.12-1.32-1.31-2.05-2.42-1.84.35-.07-.05-.17-.54-.25-.07-1.54-1.89-2.54-3.34-2.28-2.6.45-4.61 1.68-7.09 2.52a36.93 36.93 0 0 1 -8.4 1.62c-5.34.5-10.7.74-16 1.81a31.67 31.67 0 0 0 -13.54 6.55c-4.15 3.34-7.06 6.62-12.53 7.31a.45.45 0 0 0 -.42.56c1.17 4.52 7.47 4.79 11.06 3.67 2.8-.88 5.1-2.65 7.5-4.26s4.64-2.86 7-4.16a31.75 31.75 0 0 1 5.13-.76c4.78-.28 9.46 1 14.18 1.59 4.48.52 9.35.29 13.48-1.67a10.89 10.89 0 0 0 5.38-4.86c1.07-2.03.36-3.53.55-5.55z"/><path d="m259.5 128.61a6.56 6.56 0 0 0 -3 1.55c-.29.25-.55.53-.84.79.36-.32-.74.53-.85.61-1.57 1.22-3.38 3-1.71 5 1.32 1.56 4.18 1.43 5.9.85a8 8 0 0 0 3.11-1.66 6 6 0 0 0 1.72-3.88c.23-2.34-2.41-3.64-4.33-3.26z"/><path d="m289.39 120.77a3.65 3.65 0 0 0 -.56-.79 2.75 2.75 0 0 0 -1.23-.72c-.93-.13-1-.13-.2 0a4 4 0 0 0 -4 1.41 6.63 6.63 0 0 0 -.82 1.21c-.05.08-.46.72-.39.64l-.35.46c.12-.18.09-.14-.11.09a3.67 3.67 0 0 1 -.65.53 1.44 1.44 0 0 0 0 2.47 6.89 6.89 0 0 0 4.67.76c2.76-.47 5.25-3.29 3.64-6.06z"/><path d="m255.3 118.54c-1.54-2-4.17-.39-5.46 1a12.94 12.94 0 0 0 -3 4.28 1.05 1.05 0 0 0 1 1.31 11 11 0 0 0 5.15-1.53c1.65-.91 3.85-3.05 2.31-5.06z"/><path d="m285.65 106.92a6.29 6.29 0 0 0 -5.24 1.2 6.75 6.75 0 0 0 -2.68 2.75 1.44 1.44 0 0 0 .38 1.44 7 7 0 0 0 3.24 1.37 6.61 6.61 0 0 0 5.13-.4 3.52 3.52 0 0 0 -.83-6.36z"/><path d="m360.37 253.34s-.07 0-.07 0c.18 5-1.14 10.07-2.05 15a56.78 56.78 0 0 1 -1.38 6.31c-.78 2.57-1.81 3.47-3.19 5.52a2.27 2.27 0 0 0 -.34 1.49 67.36 67.36 0 0 1 -14.62 2.42c-2.53.13-5.06.39-7.59.35 4.41-3 6.77-8.88 7.71-13.84 2.28-12.07-.71-25.15-5.71-36.15h-.07c.72 8.52 3 17 1.95 25.64a33.09 33.09 0 0 1 -3.24 10.92 44.87 44.87 0 0 1 -2.54 4.27 27 27 0 0 0 -1.86 2.66c-.37.77-.3 1.85-.65.8a2.51 2.51 0 0 0 -3.63-1.48l-.61.32a2.91 2.91 0 0 0 -1.18 1.27c-.63-3.53.59-7.15 1.58-10.65 1.92-6.82 3.48-15.86.17-22.46a.16.16 0 0 0 -.29 0c-2.07 5.34-2.49 11.21-4.41 16.65s-5 10.78-4.47 16.65a22.33 22.33 0 0 0 5 11.49 39.34 39.34 0 0 0 -4.42.21c-1.26.16-2.51.36-3.76.59a3.25 3.25 0 0 0 -3.9-2.18c-4.51 1-8.59-.2-12.93-1.42-3-.83-6.52-1.85-9.29-.15a1.72 1.72 0 0 0 -.35.3c-1.26 0-2.53 0-3.75-.09-3.48-.34-6.86-1.27-10.31-1.81a.48.48 0 0 0 -.36.88 33.76 33.76 0 0 0 8.83 4.45 26 26 0 0 0 4.55.9 20.38 20.38 0 0 1 5.95 1.95 10.79 10.79 0 0 0 3.85.69 31.19 31.19 0 0 1 4.18.82 5 5 0 0 1 -2.45.16c-2.46-.48-4.79-1.37-7.29-1.75-3.89-.6-8.45-.81-12.32.38a.88.88 0 0 0 -.43.15c-.27.09-.54.17-.81.28a8.78 8.78 0 0 0 -.32-1.89 9.65 9.65 0 0 0 -2.09-3.68c-1-1.15-3.35-2-4.11-3.11s.52-2.35 1.31-3.6a33.63 33.63 0 0 0 2.34-4.29c1.38-3.12 2-6.2.88-9.49a3.78 3.78 0 0 0 -1-1.54c.6-.65 1.19-1.3 1.78-2a54.43 54.43 0 0 0 15.42-16.24 52.24 52.24 0 0 0 3-5.74c.48-.72.95-1.45 1.39-2.19a38 38 0 0 0 4.19-9.38c.94-3.33.75-6.64 1.19-10 .37-2.94-4.17-3.29-5-.68-.33 1.06-.67 2.11-1 3.16a.88.88 0 0 0 -.62.63c-1.71 5.73-5.5 10.91-9.48 15.28a50.72 50.72 0 0 1 -6.08 5.64c-2 1.57-4 2.94-4.59 5.53v.23a28.13 28.13 0 0 1 -8-1.79c-1.43-.61-2.82-1.34-4.19-2.07s-2.33-1.78-3.73-2a.36.36 0 0 0 -.4.16.93.93 0 0 1 -.05.1 1 1 0 0 0 -1.24 1c-.28 4.22 2.12 8.73 4.17 12.29a14.49 14.49 0 0 0 3.56 4.31 59.63 59.63 0 0 1 -17.38 7.93c-5.81 1.46-11.86 1.33-17.81 1.3s-12-.29-17.93-.77c-12.32-1-24.64-2.88-36.31-7-.07 0-.13.08-.07.13a88 88 0 0 0 36.22 18.35c13.2 3.08 28.84 4 41.8-.69l1.08-.42h.06a23 23 0 0 0 9.61-2.86c.37-.19.73-.39 1.08-.59a18.49 18.49 0 0 0 -2 5.74 6.46 6.46 0 0 0 1.46 5.71c1.55 1.63 6.47 2.76 5.92 5.52a3.3 3.3 0 0 0 4.78 3.67 3.42 3.42 0 0 0 1-.73 2.12 2.12 0 0 0 1.86.79c3-.11 6-.44 8.87-.39 2.4.55 4.84.95 7.29 1.27l.25.09c1.85.72 3.5 2.09 5.57 2.14a13.52 13.52 0 0 0 5.17-1.39c2.6.06 5.2 0 7.8.07a2.81 2.81 0 0 0 1.91.35c.56-.08 1.1-.19 1.65-.28a69.15 69.15 0 0 1 7.87.62c6.53.94 12.43 3.37 19.05 1.45a19.52 19.52 0 0 0 3.44-1.35q3.22.27 6.42.63c2.17.25 3.76-2 3.87-3.87.17-2.85-.46-5.6-.58-8.44a5.21 5.21 0 0 0 -.1-.72q2.87-.69 5.63-1.54a3.9 3.9 0 0 0 2.33-5.72 4.82 4.82 0 0 0 -.38-.51c2.55-3.49 2.38-8.92 2.55-13a32.87 32.87 0 0 0 -2.81-15.67z"/><path d="m353.76 186.92-1.6-1.9a32.47 32.47 0 0 0 -8.23-7.18c-3.22-1.85-6.7-2.44-10.33-2.92-2.56-.33-5.24-.58-7.55-1.85-1.66-.92-2.77-2.48-4.44-3.32a.43.43 0 0 0 -.41 0 3.73 3.73 0 0 0 0-.48c0-7.37-1.91-14.58-1.69-22a51.53 51.53 0 0 1 5.52-21.52c1.31-2.63 2.75-5.34 3-8.32.33-3.52-2.06-6-2-9.32.13-3.7 1-7.26.84-11v-.92c1.16-7.49-1.47-15.93-6.84-20.65-9.57-8.39-23.64-10.82-35.74-12.68a.12.12 0 0 0 -.06.23 112.4 112.4 0 0 1 12.52 5.57c-1.59-.38-3.2-.71-4.86-1a.16.16 0 0 0 -.12.29c3.32 2.3 6.7 4.59 9.93 7 2.68 2 7.51 5 8.81 8.23 1.15 2.9 0 7.64-.07 10.71a69.87 69.87 0 0 0 .53 10.67 27.56 27.56 0 0 0 -4 6.72 5.18 5.18 0 0 0 -.37-.55 14.88 14.88 0 0 0 -4.45-3.55.48.48 0 0 0 -.58.75 13 13 0 0 1 3.21 5.92c.2.92.22 1.83.43 2.69a2.45 2.45 0 0 0 -1.58 2.35c.31 5.21.58 10.42 1.08 15.62a.5.5 0 0 0 0 .12c-.55 6.39-4.37 12.09-9 16.61a31 31 0 0 1 -20.44 8.91.4.4 0 0 0 -.11.78 26.68 26.68 0 0 0 12.49 1.31 25.1 25.1 0 0 1 -12.65 1.2c-4.39-.78-8-3.37-12.21-4.5a.35.35 0 0 0 -.45.34c.69 5.37 6.32 8.69 10.94 10.42a23.68 23.68 0 0 0 13.31.87c.43 3.45.89 6.9 1.23 10.35a2.31 2.31 0 0 0 4.62 0 112.66 112.66 0 0 0 1.11-15.36 4 4 0 0 0 -3.24-3.79 22.8 22.8 0 0 0 10.78-6.1c.48-.49.92-1 1.34-1.52a1.76 1.76 0 0 0 2.17-.28 10.33 10.33 0 0 0 2.09-3.77 59.22 59.22 0 0 0 2.05 21.19c.83 3 5.07 3.17 6.45 1a4 4 0 0 0 5.45-.86c-.56 6 12.35 7.83 15.81 8.93a18.67 18.67 0 0 1 4.08 1.87.51.51 0 0 0 .13.16l.63.48-.31-.07a.48.48 0 0 0 -.36.87c4.55 2.91 5.14 10 6.84 14.66 2 5.51 4.14 11 4.8 16.89.45 4.05 6.05 4.6 7 1.08a1.18 1.18 0 0 0 .78.44 1.29 1.29 0 0 0 .67-.11c1.54 4.12 8.47 3.76 8.2-1.2a40.37 40.37 0 0 0 -15.15-28.51zm-45.87-44.27c.06-.63.09-1.25.11-1.88a2 2 0 0 0 .34.13c-.16.59-.34 1.17-.45 1.75zm8-27.25a26.42 26.42 0 0 1 -3.4 5.09c-.54.74-1.07 1.49-1.58 2.25-.58-1.37-1.21-2.68-1.77-3.88a2 2 0 0 0 .86-.86 42.06 42.06 0 0 1 4.64-7.53 4.68 4.68 0 0 0 4.84-3h.06c0-.09.07-.19.1-.28a18.3 18.3 0 0 0 .71 4.43c.32 1 .86 1.81 1.21 2.73a3.29 3.29 0 0 0 -5.65 1.05zm2.57 6.67a16 16 0 0 0 3-3.57 25.4 25.4 0 0 1 -2.4 4.85 1.8 1.8 0 0 0 -.58-1.28z"/><path d="m335.34 52a3.2 3.2 0 0 0 -3.77.48 7.33 7.33 0 0 0 -2 3.8c-.29 1.42.05 3.63-.85 4.88-.55.78-2.3.87-3.24 1.07a35 35 0 0 0 -5.31 1.1 1.1 1.1 0 0 0 -.25 2c2.12 1.41 5 1.93 7.51 2.46s4.95.6 7.08-1.21c3.79-3.23 6.28-11.8.83-14.58z"/><path d="m203.72 27.4a10.28 10.28 0 0 0 -5.17-1.76 9.87 9.87 0 0 0 -12-6.78c-2.39-3.51-5.75-5.66-10.6-3.12a18.57 18.57 0 0 0 -6.62 6 19.59 19.59 0 0 0 -2.61 6.79 8 8 0 0 0 -1-.47 7.25 7.25 0 0 0 -3.48-.36 6.3 6.3 0 0 0 -4.38 3.3c-.16.26.16.62.43.43a6.34 6.34 0 0 1 6.27-.6c.75.39 1.42 1.6 2.33 1.8a3 3 0 0 0 3.3-1.52c1.61-2.51 1.76-5.45 3.85-7.85a13.89 13.89 0 0 1 3.88-3.11c3-1.58 3.76 1.73 3 4-1.35 4 4.45 7.54 7.25 4.23.82-1 2.45-1.94 1.72.27-.94 2.85 1.53 5.45 4.25 5.58 2.93.14 5.78 1 8.65.28 3.57-.88 3.42-5.21.93-7.11z"/></g><path d="m142.87 208.54a26 26 0 0 0 -4.19-14.95 15.38 15.38 0 0 0 -10.76-6.77c-2.39-.33-4.52.33-6.89.31-1.82 0-2.46-.17-4 1a2.13 2.13 0 0 0 -.54 2.06 23.19 23.19 0 0 0 2.27 6.8 2.12 2.12 0 0 0 2.36 1 12.46 12.46 0 0 1 11.67 3.39 17 17 0 0 1 .92 9.5c-1 4.91-5.57 6-9.76 3.92a14.57 14.57 0 0 1 -4-3.07 22.53 22.53 0 0 1 -1.31-5.2 2.27 2.27 0 0 0 -2.16-2.16 25.1 25.1 0 0 1 -4.78-1.09c-1.88-.61-3.23 2.14-1.79 3.26a2.8 2.8 0 0 0 -.13.41 1.76 1.76 0 0 0 -.27 1.16c.49 4.26 3.14 8.68 6.71 11.73-.43 6.58 20.8 11.09 22.31 1.58a9.26 9.26 0 0 0 2.9-3.67 18.61 18.61 0 0 0 1.44-9.21z" fill="#34b6ff"/><path d="m129.86 374.3c-.64-4.48-1-9-1.56-13.5-.29-2.33-.28-5.15-3.05-5.78-1.48-.34-3.18.25-4.64.4-2.12.23-4.28.32-6.41.37-2.52.06-9.37 1-10.54-1.74-.88-2.06-3.37-1.91-4.82-.66a2.59 2.59 0 0 0 -4.47 1.67 98.08 98.08 0 0 0 .48 19.53c.18 1.67 1.42 3.65 3.42 3.42 4.72-.53 9.7-.05 14.45 0s9.62 0 14.45-.21a2.84 2.84 0 0 0 2.69-3.5z" fill="url(#a)"/><path d="m364.51 120.61c-1.69-5.29-7.34-6.41-12.19-6-5.11.45-12 .15-16.45 3.06a7.74 7.74 0 0 0 -3.55 8c-.49 4 2.75 6.65 6.62 7.49-.3 1.15-.78 2.92.62 3.44 1.62.61 2.81-1.59 3.38-2.85 4.91.56 10.52.67 14.83-1 4.74-1.75 8.4-6.96 6.74-12.14z" fill="#34b6ff"/><path d="m326.79 50.92a3.5 3.5 0 0 0 -1.32-.23 3.41 3.41 0 0 0 -4.19 1.31 6.7 6.7 0 0 0 -.3 7.1 4.29 4.29 0 0 0 1.38 2.72 3.31 3.31 0 0 0 4.92-.39 3.2 3.2 0 0 0 3-3.17c0-1.37.07-2.73.1-4.1a3.3 3.3 0 0 0 -3.59-3.24z" fill="url(#b)"/><path d="m31.85 359.37a6.42 6.42 0 0 1 -1.16-.11 4.81 4.81 0 0 1 -3.46-2.56 5 5 0 0 1 .81-5 5.61 5.61 0 0 1 5-2.48 4.78 4.78 0 0 1 3.96 3.38 5.12 5.12 0 0 1 -1.29 5.29 5.69 5.69 0 0 1 -3.86 1.48zm-2.49-3.66a2.5 2.5 0 0 0 1.8 1.24 3.4 3.4 0 0 0 2.94-.77 2.76 2.76 0 0 0 .66-2.87 2.48 2.48 0 0 0 -2-1.79 3.38 3.38 0 0 0 -2.82 1.55 2.8 2.8 0 0 0 -.58 2.64z" fill="#5d6466"/><path d="m27.76 198.59a4.88 4.88 0 0 1 -4.32-2.79 5.39 5.39 0 0 1 .8-5.54c1.49-1.79 3.45-2.46 5.25-1.78a5.4 5.4 0 0 1 -1.06 10.05 3.79 3.79 0 0 1 -.67.06zm-1.7-6.83a3 3 0 0 0 -.48 3.06 2.43 2.43 0 0 0 2.47 1.39 2.77 2.77 0 0 0 2.06-2.65 2.81 2.81 0 0 0 -1.45-2.88 2.37 2.37 0 0 0 -2.6 1.08z" fill="#5d6466"/><path d="m44.68.2a1.18 1.18 0 0 1 -1.17-1.09l-.25-3.54a1.18 1.18 0 0 1 1.09-1.26 1.19 1.19 0 0 1 1.26 1.09l.25 3.54a1.18 1.18 0 0 1 -1.09 1.26z" fill="#5d6466"/><path d="m306.41 35.38a3.32 3.32 0 0 0 -3.71-1.51 19.56 19.56 0 0 0 -4.44 2.64c.35-.25-.62.34-.62.34l-.66.51h-.09a3.68 3.68 0 0 1 -.66-.06 1.78 1.78 0 0 0 -2.24 1.7 6.27 6.27 0 0 0 6.84 5.79c4.43-.48 8.09-5.11 5.58-9.41z" fill="#e1e3e5"/><path d="m299.19 41.48a1.2 1.2 0 0 1 -.76-.27l-4.79-4a1.17 1.17 0 0 1 -.14-1.66 1.14 1.14 0 0 1 .88-.42l4.7-5.17a1.18 1.18 0 0 1 .83-.38 1.16 1.16 0 0 1 .85.32l5.3 5a1.18 1.18 0 0 1 .37.92 1.19 1.19 0 0 1 -.47.87l-6.06 4.55a1.23 1.23 0 0 1 -.71.24zm-2.82-5.09 2.87 2.41 4.19-3.15-3.43-3.26z" fill="#5d6466"/><path d="m57.59 357a1.18 1.18 0 0 1 -1.06-.67c-1.29-2.67-1.33-5.66-1.36-8.3l-.86-67a1.17 1.17 0 0 1 1.16-1.19 1.2 1.2 0 0 1 1.19 1.16l.86 67c0 2.39.07 5.11 1.13 7.31a1.17 1.17 0 0 1 -.55 1.57 1.16 1.16 0 0 1 -.51.12z" fill="#5d6466"/><path d="m105.52 283.86a1.18 1.18 0 0 1 -.9-.43c-1.27-1.53-3.8-1.69-6.06-1.72l-34.56-.44c-3.33 0-6.27.05-8.49 1.56a1.18 1.18 0 0 1 -1.64-.31 1.19 1.19 0 0 1 .31-1.64c3-2.05 7-2 9.85-2l34.54.44c2.79 0 5.93.26 7.84 2.57a1.17 1.17 0 0 1 -.15 1.65 1.15 1.15 0 0 1 -.74.32z" fill="#5d6466"/><path d="m105.1 352.44h-.1a1.18 1.18 0 0 1 -1.12-1.23c1-22.6 1.32-45.52 1-68.13a1.18 1.18 0 0 1 2.35 0c.29 22.66-.06 45.62-1 68.26a1.18 1.18 0 0 1 -1.13 1.1z" fill="#5d6466"/><path d="m57.9 357.66a1.18 1.18 0 0 1 0-2.35l32.59-.56a1.19 1.19 0 0 1 1.19 1.15 1.17 1.17 0 0 1 -1.15 1.2z" fill="#5d6466"/><path d="m105.53 296.28h-49.64a1.18 1.18 0 1 1 0-2.35h49.64a1.18 1.18 0 1 1 0 2.35z" fill="#5d6466"/><path d="m105.28 313.08h-48.64a1.18 1.18 0 1 1 0-2.35h48.64a1.18 1.18 0 1 1 0 2.35z" fill="#5d6466"/><path d="m56.64 327.87a1.18 1.18 0 1 1 0-2.35l48.64-.5a1.17 1.17 0 0 1 1.19 1.16 1.19 1.19 0 0 1 -1.17 1.19z" fill="#5d6466"/><path d="m104.78 343.42-48.4-.25a1.18 1.18 0 1 1 0-2.35l48.4.25a1.18 1.18 0 1 1 0 2.35z" fill="#5d6466"/><path d="m63 290.08a1.86 1.86 0 0 1 -1.06-.35 1.74 1.74 0 0 1 -.74-1.73 1.15 1.15 0 0 1 .8-.92 1.67 1.67 0 0 1 2.08 2.58 1.05 1.05 0 0 1 -.27.2 1.66 1.66 0 0 1 -.81.22z" fill="#5d6466"/><path d="m70.47 290a1.75 1.75 0 0 1 -1.74-1.56.61.61 0 0 1 0-.19 1.21 1.21 0 0 1 0-.19 1.67 1.67 0 0 1 1-1.31 1.7 1.7 0 0 1 1.65.11 1.74 1.74 0 0 1 -.07 2.91 1.6 1.6 0 0 1 -.84.23z" fill="#5d6466"/><path d="m61.91 306.66a1.14 1.14 0 0 1 -1.16-1 2.07 2.07 0 0 1 .33-1.51 1.16 1.16 0 0 1 1.85-.68 1.48 1.48 0 0 1 1.07 1.67 1.45 1.45 0 0 1 -1 1.21 2 2 0 0 1 -.42.07 1.12 1.12 0 0 1 -.56.23z" fill="#5d6466"/><path d="m69.38 307.12a1.18 1.18 0 0 1 -1-.56 2.59 2.59 0 0 1 -.37-1.87 2.1 2.1 0 0 1 1.64-1.64 1.87 1.87 0 0 1 1.44.34 1.75 1.75 0 0 1 .72 1.2 1.73 1.73 0 0 1 -.65 1.55 1.68 1.68 0 0 1 -.74.35 1.13 1.13 0 0 1 -.42.45 1.2 1.2 0 0 1 -.62.18z" fill="#5d6466"/><path d="m63 322.16a1.61 1.61 0 0 1 -.49-.07 1.24 1.24 0 0 1 -.61-.27 1.56 1.56 0 0 1 -.55-1.28 1.48 1.48 0 0 1 .19-.74.83.83 0 0 1 .19-.26 1.6 1.6 0 1 1 2 2.41 1.51 1.51 0 0 1 -.73.21z" fill="#5d6466"/><path d="m70.39 322.21h-.11a1.71 1.71 0 0 1 -1.49-1.21l-.05-.15a1.41 1.41 0 0 1 -.07-.41 1.62 1.62 0 0 1 .07-.44 1.58 1.58 0 0 1 .5-.85 1.21 1.21 0 0 1 .59-.29 1.71 1.71 0 1 1 .56 3.34z" fill="#5d6466"/><path d="m63.43 337.23a1.15 1.15 0 0 1 -.74-.26 1.8 1.8 0 0 1 -.66-1.34 1.74 1.74 0 0 1 3.3-.85 1.73 1.73 0 0 1 -1.47 2.45h-.24a.62.62 0 0 1 -.19 0z" fill="#5d6466"/><path d="m71.76 337.71a1.84 1.84 0 0 1 -.65-.13 1.12 1.12 0 0 1 -.6-.55 1.19 1.19 0 0 1 -.47-.66 1.8 1.8 0 1 1 3.53-.15 1.79 1.79 0 0 1 -.92 1.25 1.78 1.78 0 0 1 -.89.24z" fill="#5d6466"/><path d="m63.87 351.22a1.15 1.15 0 0 1 -.66-.21l-.36-.24a1.18 1.18 0 0 1 .64-2.15l9-.19a1.16 1.16 0 0 1 1.2 1.16 1.19 1.19 0 0 1 -1.15 1.2l-7.93.16a1.17 1.17 0 0 1 -.74.27z" fill="#5d6466"/><path d="m98.21 305.25-7.7-.1a1.18 1.18 0 0 1 0-2.35l7.69.1a1.18 1.18 0 0 1 0 2.35z" fill="#5d6466"/><path d="m93.6 378.86a1.19 1.19 0 0 1 -1.18-1.16l-.55-26a1.16 1.16 0 0 1 1.07-1.19l9.35-.84a1.17 1.17 0 0 1 1 .45l3.26 4.27 22.29-.68a1.18 1.18 0 0 1 1.21 1.14l.7 22.47a1.19 1.19 0 0 1 -.33.86 1.24 1.24 0 0 1 -.84.36zm.64-26.07.51 23.7 33.65-.26-.62-20.09-21.72.66a1.15 1.15 0 0 1 -1-.46l-3.24-4.23z" fill="#5d6466"/><path d="m81.94 137.57a10.24 10.24 0 0 0 -2.53-2.15 7.54 7.54 0 0 0 -1.19-.55c.51-2.88.25-6.17.4-9 .3-5.76-8.53-5.72-8.92 0-.28 4-1.56 9.07-.34 12.91a6.64 6.64 0 0 0 3.37 3.9c2.08 1 2.61.74 3.86 3 .5.91.69 2.14 1.21 3l.08.34c-1.88 0-4.84 1.21-6.51 1.5-4.81.83-10 .87-14.59 2.57a1.45 1.45 0 0 0 -.35 2.62c5.28 2.93 12.24 2.8 18.11 2.27 4.41-.4 11.14-.42 12.37-5.86 1.09-4.89-1.85-11-4.97-14.55z" fill="#e1e3e5"/><path d="m142.37 138.73c-4.14-4.8-1.52-10.72-4.3-15.83-1.69-3.1-6.06-2.81-7.84 0-2.25 3.52-1.62 8.59-1 12.55.74 4.59 2.86 7.92 5.72 11.47.17.21.54.81.86 1.27-1.88 0-3.91.3-5.79.45-3.89.31-9.61-.24-12.59 2.7a1.37 1.37 0 0 0 -.21 1.64c2.78 4.57 11.83 5.37 16.66 5.72s10.16-.67 12.55-5.24c2.92-5.59-.51-10.62-4.06-14.73z" fill="#e1e3e5"/><path d="m171.71 85.82a4.69 4.69 0 0 0 -2.79 6.78c2.45 4.72 1.51 14-3.94 16.37a17.34 17.34 0 0 1 -11.24 1.03 10 10 0 0 1 -5-3.33c-.87-1-1.36-2.21-2.55-2.84a.23.23 0 0 0 -.24 0c-4 3.21 2 10.5 4.62 12.5a20.57 20.57 0 0 0 21 1.7c6.63-3.46 9.49-10.71 10.24-17.78.65-6.1-1.62-16.67-10.1-14.43z" fill="#e1e3e5"/><path d="m44.22 134.34a1.17 1.17 0 0 1 -1.17-1.13l-.34-8.72a1.18 1.18 0 0 1 2.35-.09l.34 8.72a1.19 1.19 0 0 1 -1.13 1.22z" fill="#5d6466"/><path d="m39.77 130.13a1.18 1.18 0 0 1 0-2.35l8.54-.3a1.18 1.18 0 0 1 .08 2.36l-8.54.29z" fill="#5d6466"/><path d="m70.09 135.89a6 6 0 0 1 -3.17-.89c-2.36-1.5-3.36-4.28-2.67-7.45.79-3.57 3.45-6.35 6.48-6.75a5.19 5.19 0 0 1 5.83 3.36c1.43 3.48.3 8.32-2.41 10.37a6.77 6.77 0 0 1 -4.06 1.36zm-1.91-2.89a4.15 4.15 0 0 0 4.56-.35c1.83-1.39 2.65-5.16 1.65-7.61a2.89 2.89 0 0 0 -3.39-1.91c-2.3.3-4 2.71-4.49 4.93s.18 4.01 1.67 4.94z" fill="#5d6466"/><path d="m57.76 155.48a1.35 1.35 0 0 1 -.28 0 1.17 1.17 0 0 1 -.89-1 26.11 26.11 0 0 1 .16-8.21 9.54 9.54 0 0 1 5.3-6.85 13 13 0 0 1 2.15-.62 10.09 10.09 0 0 0 2-.61 2.5 2.5 0 0 0 1.23-1.3.77.77 0 0 0 0-.65 1.18 1.18 0 0 1 2.1-1.07 3.11 3.11 0 0 1 .15 2.47 4.85 4.85 0 0 1 -2.44 2.67 11.52 11.52 0 0 1 -2.51.78 11.13 11.13 0 0 0 -1.77.5 7.22 7.22 0 0 0 -3.96 5.13 19.16 19.16 0 0 0 -.25 5.72l.13.07a1.18 1.18 0 0 1 .35 1.63l-.52.8a1.19 1.19 0 0 1 -.95.54z" fill="#5d6466"/><path d="m82.81 154.27h-.06a1.19 1.19 0 0 1 -1.11-1.27 22.3 22.3 0 0 0 -.29-6.74 6.76 6.76 0 0 0 -3.52-4.68 11 11 0 0 0 -1.81-.52c-.35-.09-.71-.17-1.06-.27a5.74 5.74 0 0 1 -3.27-2 3.37 3.37 0 0 1 .24-4.43 1.18 1.18 0 0 1 1.58 1.75 1.1 1.1 0 0 0 .07 1.29 3.62 3.62 0 0 0 2 1.14c.31.09.63.16 1 .23a13.42 13.42 0 0 1 2.2.66 9.1 9.1 0 0 1 4.87 6.26 24.52 24.52 0 0 1 .36 7.45 1.18 1.18 0 0 1 -1.2 1.13z" fill="#5d6466"/><path d="m68.55 156.83c-3.27 0-6.54-.15-9.79-.41a1.17 1.17 0 0 1 .19-2.34 123.54 123.54 0 0 0 24.17-.42 1.18 1.18 0 0 1 .27 2.34 126.78 126.78 0 0 1 -14.84.83z" fill="#5d6466"/><path d="m129.67 134.06a5.9 5.9 0 0 1 -3.89-1.46 7.17 7.17 0 0 1 -1.68-7.84 6.24 6.24 0 0 1 5.73-4.33c2.63-.05 4.71 1.7 5.42 4.56s-.12 7-3.16 8.52a5.33 5.33 0 0 1 -2.42.55zm-2.34-3.22a3.48 3.48 0 0 0 3.69.57c1.86-.95 2.46-3.78 1.94-5.86a3.18 3.18 0 0 0 -3-2.77h-.07a3.89 3.89 0 0 0 -3.56 2.79 4.89 4.89 0 0 0 1 5.27z" fill="#5d6466"/><path d="m117 152.18a1.2 1.2 0 0 1 -1.12-.83 12.82 12.82 0 0 1 6.76-15.43l1-.45a11.54 11.54 0 0 0 1.69-.82 2.37 2.37 0 0 0 1.21-1.6 1.17 1.17 0 1 1 2.34.18 4.59 4.59 0 0 1 -2.29 3.41 13.34 13.34 0 0 1 -2 1c-.32.13-.64.26-1 .41a10.44 10.44 0 0 0 -5.86 11.14 1.18 1.18 0 0 1 .6 1.47l-.28.75a1.18 1.18 0 0 1 -1.05.77z" fill="#5d6466"/><path d="m140 151a.82.82 0 0 1 -.26 0 1.17 1.17 0 0 1 -.88-1.41 10.35 10.35 0 0 0 -5.13-11.1l-.6-.29a9 9 0 0 1 -2-1.21 3.46 3.46 0 0 1 -1.2-3.71 1.18 1.18 0 0 1 2.22.78 1.25 1.25 0 0 0 .52 1.15 7 7 0 0 0 1.49.86l.66.33a12.63 12.63 0 0 1 6.34 13.72 1.17 1.17 0 0 1 -1.16.88z" fill="#5d6466"/><path d="m126.34 153.2a58.28 58.28 0 0 1 -8.87-.68 1.17 1.17 0 1 1 .35-2.32 58.43 58.43 0 0 0 22.2-.92 1.18 1.18 0 0 1 .54 2.29 60.53 60.53 0 0 1 -14.22 1.63z" fill="#5d6466"/><path d="m128.64 141.86h-.17a8.22 8.22 0 0 1 -6.33-3.28 1.18 1.18 0 0 1 1.89-1.4 5.77 5.77 0 0 0 9.1.22 1.18 1.18 0 1 1 1.82 1.49 8.2 8.2 0 0 1 -6.31 2.97z" fill="#5d6466"/><path d="m89.78 128.9a1.18 1.18 0 0 1 0-2.35l16-.69a1.19 1.19 0 0 1 1.22 1.14 1.17 1.17 0 0 1 -1.12 1.22l-16 .69z" fill="#5d6466"/><path d="m105.38 131.94a1.19 1.19 0 0 1 -.41-.08 1.17 1.17 0 0 1 -.69-1.51 9.68 9.68 0 0 1 1.55-2.72 26.52 26.52 0 0 1 -4.08-3.24 1.17 1.17 0 0 1 1.63-1.69 24.72 24.72 0 0 0 4.89 3.67 1.19 1.19 0 0 1 .58.89 1.17 1.17 0 0 1 -.38 1 7.39 7.39 0 0 0 -2 2.91 1.16 1.16 0 0 1 -1.09.77z" fill="#5d6466"/><path d="m90 140.9a1.18 1.18 0 0 1 0-2.35l16.25-.48a1.18 1.18 0 0 1 .07 2.35z" fill="#5d6466"/><path d="m92.93 144.53a1.14 1.14 0 0 1 -.47-.1 12.78 12.78 0 0 1 -4.23-3.08 1.19 1.19 0 0 1 .1-1.68l4.59-4a1.17 1.17 0 1 1 1.54 1.77l-3.63 3.17a10.68 10.68 0 0 0 2.59 1.66 1.18 1.18 0 0 1 -.49 2.25z" fill="#5d6466"/><path d="m160.85 115.59a17.81 17.81 0 0 1 -10.06-3 17.56 17.56 0 0 1 -6.41-20.13 15 15 0 0 1 11.27-9.79 20.45 20.45 0 0 1 18.33 6 15.76 15.76 0 0 1 4.28 13.63 16.22 16.22 0 0 1 -6.26 9.7 18.46 18.46 0 0 1 -11.15 3.59zm-1.59-31a14.83 14.83 0 0 0 -3.13.3 12.74 12.74 0 0 0 -9.55 8.32 15.36 15.36 0 0 0 5.55 17.37 16.17 16.17 0 0 0 18.46-.52 13.88 13.88 0 0 0 5.36-8.25 13.38 13.38 0 0 0 -3.66-11.55 18.51 18.51 0 0 0 -13.03-5.64z" fill="#5d6466"/><path d="m158.22 99.6a5 5 0 0 1 -4.86-4.6 5.18 5.18 0 0 1 4.11-5.33 1.15 1.15 0 0 1 1.22.54 4.59 4.59 0 0 1 3 7.8 4.79 4.79 0 0 1 -3.33 1.54zm-1-7.32a2.86 2.86 0 0 0 -1.5 2.59 2.67 2.67 0 0 0 2.58 2.37 2.45 2.45 0 0 0 1.68-.8 2.37 2.37 0 0 0 .68-1.66 2.27 2.27 0 0 0 -.84-1.61 2.19 2.19 0 0 0 -1.65-.57 1.19 1.19 0 0 1 -.97-.32z" fill="#5d6466"/><path d="m164.45 107.55a1.18 1.18 0 0 1 -1.15-1 11.56 11.56 0 0 0 -4.35-7 1.18 1.18 0 0 1 -.23-1.65 1.17 1.17 0 0 1 1.64-.23 13.89 13.89 0 0 1 5.25 8.39 1.18 1.18 0 0 1 -.93 1.38.93.93 0 0 1 -.23.11z" fill="#5d6466"/><path d="m145.4 134c-1.46 0-2.91 0-4.36-.06a1.17 1.17 0 0 1 -1.14-1.21 1.19 1.19 0 0 1 1.21-1.15c3.78.11 7.62.09 11.4-.06a4 4 0 0 0 2.5-.63 4 4 0 0 0 .68-2.56c.12-3 .11-5.93 0-8.88a1.2 1.2 0 0 1 -.12-.65l.07-.58a1.17 1.17 0 0 1 2.34.06c.19 3.36.22 6.78.08 10.14a6 6 0 0 1 -1.4 4.17 5.87 5.87 0 0 1 -4 1.28c-2.45.13-4.86.13-7.26.13z" fill="#5d6466"/><path d="m119.14 45.86c-1.51-.18-2.86 1-4.22 1.51-1.16.45-2.59.41-3.63 1a1.31 1.31 0 0 0 -.46 1.74c.69 1.59 3.45 2.38 5 2.47a9 9 0 0 0 3.06-.4 4 4 0 0 0 3-2.73c.76-1.89-1.14-3.39-2.75-3.59z" fill="#e1e3e5"/><path d="m73 57.62a2.57 2.57 0 0 0 -.58-.85l-.42-.34h-.1a1.5 1.5 0 0 0 -.41-.18 2.19 2.19 0 0 0 -1.66.22l-.12.09a2.82 2.82 0 0 0 -1.71 1.02 2.16 2.16 0 0 0 -.51 1 2.84 2.84 0 0 0 0 1.53 2.74 2.74 0 0 0 .78 1.37 3.59 3.59 0 0 0 1.39.8 3 3 0 0 0 2.87-.75 2.85 2.85 0 0 0 .87-1.53 3 3 0 0 0 -.4-2.38z" fill="#e1e3e5"/><path d="m81.42 49.09a68.39 68.39 0 0 0 -15.12-6c-2.3-.68-3.3 2.35-1.53 3.61a70.19 70.19 0 0 0 7.57 4.58l3.35 1.79c.74.4 1.5.77 2.26 1.13.19.14.33.23.44.3 0 2.07 2 3.77 4.1 2.59 3.68-2.09 1.86-6.31-1.07-8z" fill="#e1e3e5"/><path d="m110.21 64.6a137.21 137.21 0 0 0 -16.7-11c-3.47-2-6.18 2.47-3.9 5.09l-.07.05a146.49 146.49 0 0 0 11.74 12.26c1.68 2.61.16 1.07-1.08-.08a23.6 23.6 0 0 0 -4.82-3.74 4 4 0 0 0 -2.24-.48 2 2 0 0 0 -2.53 1.19 4 4 0 0 0 -1 3.75l.18.82a56.14 56.14 0 0 0 .39 21.5c1.27 5.42 9.79 4.25 9.69-1.31 0-1.4 0-2.8-.11-4.2-.09-2.68-.24-5.34-.51-8a6.34 6.34 0 0 0 1.14.37c3.65.89 7.45-.71 8.68-4.42a7 7 0 0 0 .2-3.82c2.73-1.72 4.1-5.43.94-7.98z" fill="#e1e3e5"/><path d="m78.28 90.15q-.73-7.5-1.48-15a4.29 4.29 0 0 0 -3.88-3.89 1 1 0 0 0 -1.51 0 3.38 3.38 0 0 0 -2.79 3.83l1.17 15c.09 5.62 9.03 5.45 8.49.06z" fill="#e1e3e5"/><path d="m124.51 79.36c.9-3.26-.2-7.14-.78-10.4a80.63 80.63 0 0 0 -3.81-14 1 1 0 0 0 -2 .26v13.75c0 3.13-.67 7 .26 10.1a4 4 0 0 0 -1.18 1.45c-.51 1-.77 1.89-1.08 2.49-.23.45-.45.89-.71 1.32h-.14a6.49 6.49 0 0 0 -2.11 0 1.53 1.53 0 0 0 -1.08 1.08 1.26 1.26 0 0 0 0 .33 9.41 9.41 0 0 0 1.11 2.94 5.06 5.06 0 0 0 4.41 3.13c3.89.17 7.93-3.84 8.72-7.53a5.16 5.16 0 0 0 -1.61-4.92z" fill="#e1e3e5"/><path d="m115.21 50.23a3.22 3.22 0 0 1 -1.73-.51 4.14 4.14 0 0 1 -1.82-3.85 3.87 3.87 0 0 1 7.17-1.41 4 4 0 0 1 -1.66 5.17 3.7 3.7 0 0 1 -1.96.6zm.71-2.59.62 1-.62-1a1.68 1.68 0 0 0 .8-2.15c-.3-.61-1-.78-1.78-.48a1.31 1.31 0 0 0 -.94 1.11 1.79 1.79 0 0 0 .73 1.61 1.05 1.05 0 0 0 1.19-.09z" fill="#5d6466"/><path d="m76.71 96.68a1.18 1.18 0 0 1 -1.18-1.18c0-2.61-1.33-19.48-1.77-25.06l-12.1 6.43a1.17 1.17 0 0 1 -1.66-1.27l1.71-8.55a1.21 1.21 0 0 1 .57-.79l24.72-14.11a1.16 1.16 0 0 1 1.31.1l19.69 15.61a1.17 1.17 0 0 1 .45 1l-.22 7.48a1.17 1.17 0 0 1 -.63 1 1.18 1.18 0 0 1 -1.19 0l-12-7.85 2.53 24a1.19 1.19 0 0 1 -1 1.3 1.17 1.17 0 0 1 -1.29-1l-2.86-26.6a1.17 1.17 0 0 1 1.81-1.11l12.35 8 .14-4.8-18.59-14.69-23.64 13.41-1.12 5.59 11.49-6.1a1.17 1.17 0 0 1 1.73.94c.08 1 1.93 23.81 1.93 27a1.18 1.18 0 0 1 -1.18 1.25z" fill="#5d6466"/><path d="m52.34 80a1.18 1.18 0 0 1 -1.18-1.1l-1.16-19.3-10.67 4.49a1.18 1.18 0 0 1 -1 0 1.16 1.16 0 0 1 -.61-.77 49.25 49.25 0 0 1 -1.11-5.62 1.17 1.17 0 0 1 .57-1l23.74-14.58a1.18 1.18 0 0 1 1.24 0l18 11.33a1.18 1.18 0 0 1 .55 1v3a1.18 1.18 0 0 1 -2.36 0v-2.35l-16.83-10.59-22.46 13.76c.12.72.37 1.9.64 3.11l10.9-4.59a1.18 1.18 0 0 1 1.63 1l1.28 21a1.18 1.18 0 0 1 -1.1 1.21z" fill="#5d6466"/><path d="m69 63.54a1.18 1.18 0 0 1 -1.17-1.1l-.42-6.44a1.17 1.17 0 0 1 1.76-1.1l6 3.42a1.18 1.18 0 0 1 -1.17 2l-4.08-2.33.28 4.23a1.19 1.19 0 0 1 -1.1 1.25z" fill="#5d6466"/><path d="m118.52 86.59h-.23a4.35 4.35 0 0 1 -3.05-1.59 4.42 4.42 0 0 1 -1.09-3.3 4.55 4.55 0 0 1 1.67-3 4.6 4.6 0 0 1 3.31-1 1.2 1.2 0 0 1 .86.52 4.72 4.72 0 0 1 1.38.81 4.15 4.15 0 0 1 .18 6.32 4.36 4.36 0 0 1 -3.03 1.24zm-.76-6.36a2.21 2.21 0 0 0 -.45.3 2.13 2.13 0 0 0 -.82 1.4 2.1 2.1 0 0 0 .54 1.55 2 2 0 0 0 1.4.75 2.14 2.14 0 0 0 2.14-2 2 2 0 0 0 -.73-1.41 1.92 1.92 0 0 0 -1.47-.48 1.15 1.15 0 0 1 -.61-.11z" fill="#5d6466"/><path d="m117.92 80a1.17 1.17 0 0 1 -1.17-1.15l-.56-26.94a1.18 1.18 0 0 1 2.36 0l.55 26.94a1.18 1.18 0 0 1 -1.18 1.15z" fill="#5d6466"/><path d="m113.69 56.7a1.17 1.17 0 0 1 -.81-2 12.2 12.2 0 0 0 2.77-4.08 1.2 1.2 0 0 1 .82-.7 1.22 1.22 0 0 1 1 .25l4.22 3.63a1.17 1.17 0 0 1 -1.53 1.78l-3.06-2.62a14.63 14.63 0 0 1 -2.63 3.43 1.17 1.17 0 0 1 -.78.31z" fill="#5d6466"/><path d="m321.17 64.16a1.18 1.18 0 0 1 -1.17-1.16l-.06-11a1.18 1.18 0 0 1 2.36 0v9.79l8.63-.6a1.19 1.19 0 0 1 1.25 1.1 1.17 1.17 0 0 1 -1.09 1.25l-9.88.68z" fill="#5d6466"/><path d="m330.55 62.76a1.18 1.18 0 0 1 -1.16-1 33.48 33.48 0 0 1 -.29-9.32l-8.61-.4a1.18 1.18 0 0 1 .11-2.35l9.89.45a1.21 1.21 0 0 1 .85.43 1.18 1.18 0 0 1 .26.92 30.84 30.84 0 0 0 .11 9.87 1.18 1.18 0 0 1 -1 1.36z" fill="#5d6466"/><path d="m215 120.32c-1.07-2.47-3.58-4.3-6.33-3.23s-3.56 4.34-4 7.08c-.58 3.26-1.24 6.7-1.56 10a6.22 6.22 0 0 0 .13 2c-.43.05-.87.1-1.29.17-2.41.37-4.8.49-6.94 1.74a1.13 1.13 0 0 0 0 1.93c3 1.78 7 1.89 10.36 2.43 2.92.47 5.51.59 7.7-1.7s2.74-6.15 2.85-9.31c.08-3.54.57-7.77-.92-11.11z" fill="#e1e3e5"/><g fill="#5d6466"><path d="m192.85 139.14a1.18 1.18 0 0 1 -1.17-1.07l-1.47-16.59a1.19 1.19 0 0 1 1.07-1.28 1.18 1.18 0 0 1 1.28 1.07l1.32 15a1.18 1.18 0 0 1 .26.9l-.12.92a1.18 1.18 0 0 1 -1.17 1.05z"/><path d="m209.89 139h-16.89a1.18 1.18 0 0 1 0-2.35h16.92a1.18 1.18 0 0 1 0 2.36z"/><path d="m209.12 121.66h-.12a99.66 99.66 0 0 0 -18-.33 1.19 1.19 0 0 1 -1.26-1.08 1.17 1.17 0 0 1 1.09-1.26 100.77 100.77 0 0 1 18.38.33 1.18 1.18 0 0 1 -.13 2.35z"/><path d="m210.11 138.48a1.15 1.15 0 0 1 -.26 0 1.19 1.19 0 0 1 -.92-1.07l-1.06-16.16a1.18 1.18 0 0 1 2.35-.16l1 14.59a1.18 1.18 0 0 1 .34 1.52l-.38.69a1.17 1.17 0 0 1 -1.07.59z"/><path d="m200.65 134.28a1.21 1.21 0 0 1 -.79-.3 22 22 0 0 1 -4.1-4.91 1.17 1.17 0 1 1 2-1.23 20 20 0 0 0 2.69 3.45l4-6a1.17 1.17 0 1 1 1.95 1.31l-4.77 7.12a1.15 1.15 0 0 1 -.83.51z"/><path d="m156.17 36.83-9.71-.2a1.18 1.18 0 0 1 0-2.35l8.53.18a9.25 9.25 0 0 1 12.5-7.94 21.57 21.57 0 0 1 2.21-6 12.8 12.8 0 0 1 7.68-6.25 10.49 10.49 0 0 1 10.47 3.41 10 10 0 0 1 1.76 3.15l.53-.07a7.84 7.84 0 0 1 7.57 4.47 8.51 8.51 0 0 1 .13 6.5 44 44 0 0 1 9.25 0 1.18 1.18 0 1 1 -.26 2.34 41.05 41.05 0 0 0 -11 .25 1.17 1.17 0 0 1 -1.11-1.88 6.2 6.2 0 0 0 .81-6.26 5.38 5.38 0 0 0 -5.21-3.12h-.23a10.29 10.29 0 0 1 -.88 5.47 3.13 3.13 0 0 1 -2.52 2.12 2.4 2.4 0 0 1 -1.93-.74 3.94 3.94 0 0 1 -1-3.08 7.05 7.05 0 0 1 3.57-5.26 7.57 7.57 0 0 0 -1.35-2.46 8.2 8.2 0 0 0 -7.98-2.52 10.5 10.5 0 0 0 -6.22 5.13 20.5 20.5 0 0 0 -2.09 5.92 7.55 7.55 0 0 1 1 .84 4.6 4.6 0 0 1 1.58 2.92 3.09 3.09 0 0 1 -.75 2.2 2.44 2.44 0 0 1 -3.67.08 5.1 5.1 0 0 1 -.92-3.92c0-.28.08-.57.12-.88a6.92 6.92 0 0 0 -9.73 6.71 1.16 1.16 0 0 1 -1.17 1.24zm13.08-6.49a2.41 2.41 0 0 0 .39 1.78.21.21 0 0 0 .14-.07.77.77 0 0 0 .16-.48 2.19 2.19 0 0 0 -.69-1.23zm18.61-6.11a4.54 4.54 0 0 0 -1.67 2.95 1.46 1.46 0 0 0 .37 1.23c.06 0 .3-.14.59-.76a7.72 7.72 0 0 0 .71-3.42z"/><path d="m234.07 48a1.17 1.17 0 0 1 -1.17-1.13l-.68-19.24a1.17 1.17 0 0 1 1.13-1.22 1.19 1.19 0 0 1 1.22 1.14l.68 19.24a1.18 1.18 0 0 1 -1.14 1.21z"/><path d="m233.49 48.75a1.18 1.18 0 0 1 -.05-2.35l25.87-1.12a1.18 1.18 0 0 1 .1 2.35l-25.87 1.12z"/><path d="m259.12 46.7a1.17 1.17 0 0 1 -1.12-1.15l-.29-11.11a3.81 3.81 0 0 0 -.44-2.15c-.69-.91-2.43-.64-4.21-.23a38.39 38.39 0 0 1 -7.56 1c-1.42 0-3.18-.08-4.3-1.41a5.36 5.36 0 0 1 -.8-1.47 5 5 0 0 0 -.31-.69 3 3 0 0 0 -2.41-1.21 11.23 11.23 0 0 0 -3.51.61 1.17 1.17 0 0 1 -.64-2.26 13 13 0 0 1 4.27-.7 5.23 5.23 0 0 1 4.31 2.36 6.82 6.82 0 0 1 .47 1 3.52 3.52 0 0 0 .43.85c.47.56 1.61.59 2.42.56a35.23 35.23 0 0 0 7.09-.93c1.72-.4 4.9-1.15 6.62 1.09a5.75 5.75 0 0 1 .92 3.52l.29 11.11a1.19 1.19 0 0 1 -1.23 1.21z"/><path d="m379.1 324a1.19 1.19 0 0 1 -1.18-1.13l-.36-8.92a1.18 1.18 0 0 1 2.35-.09l.36 8.91a1.17 1.17 0 0 1 -1.13 1.22z"/><path d="m375 319.54a1.18 1.18 0 0 1 -.1-2.35l8.33-.78a1.18 1.18 0 1 1 .22 2.34l-8.33.78z"/><path d="m385.34 201.36a3.25 3.25 0 0 1 -2.34-.94 3.5 3.5 0 0 1 1.21-5.56 1.21 1.21 0 0 1 .56-.07 1.16 1.16 0 0 1 .55-.15 3.51 3.51 0 0 1 3.26 4.66 3.38 3.38 0 0 1 -2.5 2 3.78 3.78 0 0 1 -.74.06zm-.13-4.38-.16.08a1 1 0 0 0 -.57.77 1 1 0 0 0 .2.94 1 1 0 0 0 .93.21 1 1 0 0 0 .79-.55 1.08 1.08 0 0 0 -.19-1 1 1 0 0 0 -.82-.49z"/><path d="m370.11 187.27a1.23 1.23 0 0 1 -.65-.19l-8.12-5.35a1.18 1.18 0 0 1 -.24-1.76l7.92-9.11a1.18 1.18 0 0 1 .85-.4 1.16 1.16 0 0 1 .88.35l6.74 6.94a1.19 1.19 0 0 1 .31 1 1.17 1.17 0 0 1 -.69.85 9.83 9.83 0 0 0 -5.87 6.76 1.16 1.16 0 0 1 -.72.79 1 1 0 0 1 -.41.12zm-6.36-6.77 5.72 3.77a11.91 11.91 0 0 1 5.21-6l-4.68-4.9z"/><path d="m28 324.61a1.18 1.18 0 0 1 -1.18-1.15c-.05-2.86-1.25-70-1-74.56a1.2 1.2 0 0 1 1.21-1.11c7.66.25 65.06-.49 65.64-.5l53.68-1.29a1.18 1.18 0 0 1 1.2 1.15 1.17 1.17 0 0 1 -1.15 1.2l-53.65 1.25c-2.29 0-53.57.7-64.58.53-.09 10.05 1 72.58 1 73.25a1.16 1.16 0 0 1 -1.17 1.23z"/><path d="m73.35 259.7c-11 0-44.14-1.71-45.63-1.78a1.18 1.18 0 1 1 .12-2.35c.39 0 38.91 2 47.29 1.75 3.05-.09 10.1-.43 18.26-.83 14.36-.71 32.23-1.59 36-1.42a1.17 1.17 0 0 1 1.12 1.22 1.18 1.18 0 0 1 -1.23 1.13c-3.64-.16-21.45.71-35.76 1.42-8.18.4-15.24.74-18.31.83-.52.02-1.15.03-1.86.03z"/><path d="m210.25 257.08a57.34 57.34 0 0 1 -12.69-1.45c-9.35-2.13-18.86-6.49-29.06-13.34l-1.14-.77c-4.09-2.77-8.32-5.63-13.05-6.09-7.36-.72-14.15 4.5-19.94 9.45a1.17 1.17 0 0 1 -1.52-1.79c6.15-5.26 13.41-10.8 21.69-10 5.32.51 9.8 3.55 14.14 6.48l1.13.77c10 6.68 19.21 10.94 28.27 13 10.81 2.46 21.59 1.64 30.35-2.29 8-3.6 15.25-10.05 21.43-19.17 5.53-8.14 9.57-17.35 13.46-26.26a1.18 1.18 0 0 1 2.16.94c-3.94 9-8 18.32-13.67 26.65-6.44 9.47-14 16.2-22.42 20a46.74 46.74 0 0 1 -19.14 3.87z"/><path d="m221.8 280.57c-23.29 0-47.45-9.88-65.12-27.08l-1.05-1a30.87 30.87 0 0 0 -7.31-5.9c-2.78-1.4-6.76-1.9-9.4.17a1.18 1.18 0 0 1 -1.45-1.86c3-2.37 7.71-2.53 11.91-.41 3.08 1.56 5.53 4 7.91 6.32.34.35.69.69 1 1 19.9 19.38 48.21 29.23 73.9 25.72 27.43-3.75 51.57-22.93 60.07-47.72a1.17 1.17 0 1 1 2.22.77c-8.77 25.61-33.68 45.41-62 49.28a78.34 78.34 0 0 1 -10.68.71z"/><path d="m293.83 224.59a1.1 1.1 0 0 1 -.58-.16 1.17 1.17 0 0 1 -.44-1.6 8.11 8.11 0 0 0 1.06-4.62 1.18 1.18 0 0 1 2.35-.16 10.51 10.51 0 0 1 -1.37 5.95 1.16 1.16 0 0 1 -1.02.59z"/><path d="m275.09 256.66a1.32 1.32 0 0 1 -.39-.06 68.61 68.61 0 0 1 -27.7-18.29 1.18 1.18 0 0 1 1.74-1.59 66.18 66.18 0 0 0 26.78 17.66 1.17 1.17 0 0 1 -.39 2.28z"/><path d="m358.7 212.48a1.17 1.17 0 0 1 -1.13-.86c-1.81-6.53-3.68-13.27-7.16-19.15-2.22-3.74-7.12-10.31-15-12.25-5.09-1.26-10.67-.3-15.59.55-9.29 1.6-18.9 3.25-28.06 6-12.6 3.78-20.71 9.22-24.78 16.63a1.17 1.17 0 0 1 -2.06-1.13c4.38-8 12.94-13.79 26.17-17.76 9.29-2.78 19-4.45 28.33-6.06 5.15-.88 11-1.89 16.56-.51 6.45 1.59 12.29 6.32 16.44 13.33 3.64 6.15 5.56 13 7.4 19.72a1.16 1.16 0 0 1 -.81 1.44 1.19 1.19 0 0 1 -.31.05z"/><path d="m288.66 187h-.1a1.17 1.17 0 0 1 -1.07-1.27 7 7 0 0 1 3.05-4.93 18.51 18.51 0 0 1 4.79-2.26l18.47-6.57a9.78 9.78 0 0 1 4.12-.78c3.75.35 5.7 4.08 7 7.29a1.17 1.17 0 1 1 -2.18.87c-1-2.59-2.53-5.58-5-5.82a7.7 7.7 0 0 0 -3.11.66l-18.47 6.57a16.61 16.61 0 0 0 -4.2 1.94 4.69 4.69 0 0 0 -2.09 3.23 1.17 1.17 0 0 1 -1.21 1.07z"/><path d="m272.05 298a1.17 1.17 0 0 1 -.74-2.09 3.55 3.55 0 0 0 -.6-5.54 9.39 9.39 0 0 0 -1.25-.47 5.18 5.18 0 0 1 -3.25-2.16c-1.21-2.21.44-4.38 1.64-6l.28-.38a15.22 15.22 0 0 0 2.62-8.7 47.68 47.68 0 0 0 -1.18-9.64 1.18 1.18 0 1 1 2.31-.44 49.06 49.06 0 0 1 1.22 10.12 17.16 17.16 0 0 1 -3.1 10.12l-.29.39c-1.09 1.44-1.89 2.6-1.45 3.41.29.52 1.05.76 1.92 1.05a11.4 11.4 0 0 1 1.58.61 5.88 5.88 0 0 1 1 9.47 1.16 1.16 0 0 1 -.71.25z"/><path d="m160.16 257.17h-18.3a1.18 1.18 0 0 1 0-2.36h18.3a1.18 1.18 0 0 1 0 2.36z"/><path d="m176.71 246.89a1.18 1.18 0 0 1 0-2.36l62.44-.5a1.18 1.18 0 0 1 0 2.36z"/><path d="m47.73 247.86a1.09 1.09 0 0 1 -.26 0 1.17 1.17 0 0 1 -.89-1.41 4.14 4.14 0 0 0 -1.35-4 9.57 9.57 0 0 0 -2.79-1.38 11.43 11.43 0 0 1 -3.44-1.78 8.1 8.1 0 0 1 -2.67-5.72 21.78 21.78 0 0 1 .6-5.8 1.18 1.18 0 0 1 2.31.45 19.5 19.5 0 0 0 -.56 5.18 5.81 5.81 0 0 0 1.83 4.08 9.33 9.33 0 0 0 2.79 1.38 11.38 11.38 0 0 1 3.48 1.78 6.49 6.49 0 0 1 2.14 6.3 1.17 1.17 0 0 1 -1.19.92z"/><path d="m57.44 249.07a1.19 1.19 0 0 1 -1.17-1c-.23-2.21-.68-6.32 1.86-8.82a10.07 10.07 0 0 1 2.51-1.69 14.8 14.8 0 0 0 1.32-.76 6.67 6.67 0 0 0 2-8.49 1.18 1.18 0 0 1 2-1.18 9 9 0 0 1 -2.68 11.62 16.08 16.08 0 0 1 -1.54.89 8.63 8.63 0 0 0 -2 1.28c-1.37 1.36-1.45 3.62-1.27 5.83v.16l.08.93a1.18 1.18 0 0 1 -1.06 1.27z"/><path d="m50.32 229.31c-4.11 0-8.23-.1-12.32-.3a1.18 1.18 0 0 1 .12-2.35 252.37 252.37 0 0 0 25.95-.08 1.16 1.16 0 0 1 1.24 1.11 1.18 1.18 0 0 1 -1.11 1.24c-4.6.25-9.2.38-13.88.38z"/><path d="m34.87 235.92a4.23 4.23 0 0 1 -.7-.06 4.09 4.09 0 0 1 -2.75-1.78 4.62 4.62 0 0 1 .75-5.68 5.52 5.52 0 0 1 5.44-1.21 1.18 1.18 0 1 1 -.69 2.25 3.21 3.21 0 0 0 -3.1.64 2.27 2.27 0 0 0 -.42 2.73 1.76 1.76 0 0 0 1.17.73 1.44 1.44 0 0 0 1.12-.23 1.18 1.18 0 1 1 1.44 1.86 3.64 3.64 0 0 1 -2.26.75z"/><path d="m44.12 222.81a1.16 1.16 0 0 1 -1.12-1.12l-.2-4.77a1.18 1.18 0 0 1 2.35-.1l.2 4.77a1.17 1.17 0 0 1 -1.13 1.22z"/><path d="m49.59 220.56h-.07a1.17 1.17 0 0 1 -1.1-1.24 40.65 40.65 0 0 0 -.49-9 1.18 1.18 0 0 1 2.32-.39 43 43 0 0 1 .52 9.54 1.18 1.18 0 0 1 -1.18 1.09z"/><path d="m48.77 206.53a1.18 1.18 0 0 1 -1.16-1.06l-.23-2.26a1.18 1.18 0 0 1 2.34-.24l.23 2.26a1.18 1.18 0 0 1 -1.05 1.29z"/><path d="m55.34 223.32a1.17 1.17 0 0 1 -1.17-1.07l-.51-5.77a1.17 1.17 0 0 1 2.34-.21l.51 5.77a1.16 1.16 0 0 1 -1.07 1.27z"/><path d="m78.21 248.14a1.18 1.18 0 0 1 -1.21-1.14l-.13-6.9a1.15 1.15 0 0 1 .39-.9 1.17 1.17 0 0 1 .95-.28l3.58.5a5.6 5.6 0 0 1 1.32.32 4 4 0 0 1 2.26 3.91 9.62 9.62 0 0 1 -1.1 3.67 1.18 1.18 0 0 1 -2.14-1 7.63 7.63 0 0 0 .89-2.75 1.79 1.79 0 0 0 -.81-1.67 3.38 3.38 0 0 0 -.75-.16l-2.21-.31.1 5.51a1.17 1.17 0 0 1 -1.14 1.2z"/><path d="m129.51 300a1.17 1.17 0 0 1 -1.16-1 114.81 114.81 0 0 1 -1.25-12.42 1.18 1.18 0 1 1 2.35-.1 110.11 110.11 0 0 0 1.22 12.15 1.18 1.18 0 0 1 -1 1.35z"/><path d="m144 300.5-14.67-.13a1.18 1.18 0 1 1 0-2.35l13.46.12a78.24 78.24 0 0 0 -1.12-11 1.18 1.18 0 0 1 2-1.06l.24.23a1.19 1.19 0 0 1 .27 1.37 81.05 81.05 0 0 1 1 11.64 1.18 1.18 0 0 1 -1.18 1.2z"/><path d="m142.78 287.47-15.1-.3a1.17 1.17 0 0 1 -1.15-1.2 1.16 1.16 0 0 1 1.2-1.15l15.07.29a1.18 1.18 0 0 1 0 2.36z"/><path d="m114.51 248.56a1.19 1.19 0 0 1 -1.1-.74l-26.87-68.82a5.78 5.78 0 0 1 5.29-7.89l89.17-1.57a8 8 0 0 1 7.54 4.94l25.86 62.19a1.18 1.18 0 0 1 -2.17.91l-25.86-62.2a5.6 5.6 0 0 0 -5.37-3.48l-89.13 1.51a3.43 3.43 0 0 0 -3.14 4.69l26.88 68.9a1.18 1.18 0 0 1 -.67 1.52 1.09 1.09 0 0 1 -.43.04z"/><path d="m128.43 228a20.69 20.69 0 0 1 -14.8-6.7 26 26 0 0 1 -6.53-15.06 22.52 22.52 0 0 1 2.15-12.71l1 .54-1-.54a16.7 16.7 0 0 1 12.17-9 18.58 18.58 0 0 1 15.64 4.82c5.14 4.77 7.16 11.14 8 15.64.72 4.11 1 10.05-2 15a17.18 17.18 0 0 1 -14.35 8zm-4.08-41.36a15.24 15.24 0 0 0 -2.53.21 14.43 14.43 0 0 0 -10.48 7.77 20.11 20.11 0 0 0 -1.9 11.38 23.59 23.59 0 0 0 5.91 13.69 18.19 18.19 0 0 0 13.26 6 14.76 14.76 0 0 0 12.39-6.89c2.62-4.36 2.38-9.7 1.73-13.42a25.45 25.45 0 0 0 -7.24-14.31 16.46 16.46 0 0 0 -11.14-4.45z"/><path d="m127.12 215.66a9.06 9.06 0 0 1 -6.5-2.93 11.17 11.17 0 0 1 -2.83-6.5 9.9 9.9 0 0 1 .95-5.54 7.56 7.56 0 0 1 5.42-4 8.22 8.22 0 0 1 6.92 2.13 12 12 0 0 1 3.43 6.72 9.41 9.41 0 0 1 -.91 6.56 7.64 7.64 0 0 1 -6.39 3.56zm-6.3-13.87a7.58 7.58 0 0 0 -.69 4.21 8.84 8.84 0 0 0 2.21 5.13 6.62 6.62 0 0 0 4.84 2.18 5.26 5.26 0 0 0 4.41-2.42 7.4 7.4 0 0 0 .61-4.94 9.67 9.67 0 0 0 -2.72-5.4 5.86 5.86 0 0 0 -4.92-1.54 5.16 5.16 0 0 0 -3.74 2.78z"/><path d="m118.21 205.62a1.12 1.12 0 0 1 -.4-.07l-8.81-3.16a1.18 1.18 0 0 1 .79-2.22l8 2.87a1.16 1.16 0 0 1 .93.27l.28.24a1.18 1.18 0 0 1 -.77 2.07z"/><path d="m120.77 200.57a1.2 1.2 0 0 1 -1-.53l-6.44-9.74a1.18 1.18 0 0 1 2-1.3l6.44 9.74a1.17 1.17 0 0 1 -.34 1.63 1.15 1.15 0 0 1 -.66.2z"/><path d="m120.9 243.66q-3.89 0-7.75-.26a1.18 1.18 0 0 1 .16-2.35 113.34 113.34 0 0 0 21.16-.56 1.17 1.17 0 1 1 .28 2.33 114.3 114.3 0 0 1 -13.85.84z"/><path d="m181 246.57a1.18 1.18 0 0 1 -.69-2.13 1.87 1.87 0 0 0 .69-1.28 1.78 1.78 0 0 0 -.39-1.4c-.8-.92-2.45-1-3.94-.95l-9.29.13a1.18 1.18 0 0 1 0-2.35l9.3-.14c2 0 4.27.08 5.74 1.75a4.16 4.16 0 0 1 .95 3.22 4.11 4.11 0 0 1 -1.64 2.92 1.12 1.12 0 0 1 -.73.23z"/><path d="m235.94 246.4a1.1 1.1 0 0 1 -.5-.11 1.18 1.18 0 0 1 -.56-1.57c.79-1.64-.46-3.82-2.07-4.75-1.83-1.06-4.1-1.17-6.67-1.2a403.63 403.63 0 0 0 -47.8 2.21 1.18 1.18 0 1 1 -.25-2.34 406.33 406.33 0 0 1 48.08-2.23c2.24 0 5.3.07 7.82 1.52s4.42 4.87 3 7.81a1.17 1.17 0 0 1 -1.05.66z"/><path d="m181.78 233.39a5.47 5.47 0 0 1 -3.65-1.67c-.36-.34-.69-.7-1-1.05a8.41 8.41 0 0 0 -1.73-1.58c-1.68-1-3.89-.54-6.22 0l-1.19.25c-3.49.68-7.52-.07-8.66-3.29a8.54 8.54 0 0 1 -.35-2.54 4 4 0 0 0 -.39-2.12 4.3 4.3 0 0 0 -2.36-1.15c-.39-.11-.79-.22-1.17-.35a4.6 4.6 0 0 1 -2.92-2.91 2.91 2.91 0 0 1 .74-2.74c1.23-1.34 3.9-1.54 6-1.7.61-.05 1.19-.09 1.57-.15l15.2-2.47c1.18-.19 3.37-.54 4.89.8a5.58 5.58 0 0 1 1.57 3.51 4.61 4.61 0 0 0 .71 2.11c.85 1 2.67.66 4.78.16 2.78-.65 6.09-.12 6.8 2.6.59 2.31-1.35 4.34-3.41 5.25-.39.18-.8.33-1.21.49a6.46 6.46 0 0 0 -2.82 1.63 7.35 7.35 0 0 0 -1 2.48c-.48 1.68-1 3.58-3 4.28a3.78 3.78 0 0 1 -1.18.16zm-8.78-7.25a6.93 6.93 0 0 1 3.65.93 10 10 0 0 1 2.25 2c.29.32.58.63.89.93a2.79 2.79 0 0 0 2.46 1c.8-.28 1.1-1.21 1.53-2.7a9.53 9.53 0 0 1 1.42-3.29 8.35 8.35 0 0 1 3.8-2.41c.37-.14.74-.28 1.1-.44 1.19-.52 2.32-1.58 2.08-2.51-.31-1.19-2.51-1.24-4-.9-2.09.49-5.25 1.23-7.1-.91a6.41 6.41 0 0 1 -1.24-3.23 3.75 3.75 0 0 0 -.81-2.16c-.64-.56-1.86-.42-3-.24l-15.21 2.46c-.48.08-1.07.12-1.76.17-1.36.11-3.9.3-4.5.95a.56.56 0 0 0 -.19.57 2.3 2.3 0 0 0 1.42 1.27q.49.17 1 .3a6 6 0 0 1 3.71 2.07 5.9 5.9 0 0 1 .83 3.41 6.25 6.25 0 0 0 .21 1.81c.67 1.89 3.57 2.24 6 1.77l1.14-.24a20.93 20.93 0 0 1 4.32-.61z"/><path d="m154.91 204.53a1.17 1.17 0 0 1 -1.13-.88c-2.44-9.32-3.68-14.31-3.68-14.84a1.18 1.18 0 0 1 1-1.16l5.56-.86a1.2 1.2 0 0 1 1.31.83l4.48 15a1.17 1.17 0 0 1 -1 1.51l-6.42.43zm-2.23-14.74c.56 2.39 2 8.13 3.13 12.32l4-.26-3.81-12.58z"/><path d="m167.1 203.88a1.18 1.18 0 0 1 -1.1-.88c-.74-2.88-2-7.61-2.11-8a1.18 1.18 0 0 1 .85-1.52l4.71-1.07a1.16 1.16 0 0 1 1.37.78c2.63 8.09 2.63 8.71 2.63 8.92-.04 1.19-.99 1.77-6.35 1.77zm-.67-8.42c.45 1.68 1.19 4.56 1.58 6.06 1.06 0 2.15-.09 2.85-.18-.37-1.31-1.17-3.9-2-6.44z"/><path d="m185.06 203.24h-7.27a1.19 1.19 0 0 1 -1.14-.88l-3.42-13a1.17 1.17 0 0 1 .67-1.37l5.34-2.35a1.1 1.1 0 0 1 .94 0 1.15 1.15 0 0 1 .64.69l5.35 15.39a1.2 1.2 0 0 1 -.15 1.07 1.18 1.18 0 0 1 -.96.45zm-6.36-2.35h4.7l-4.4-12.63-3.26 1.44z"/></g><path d="m242 177.39c-3.85-3.19-8.8.7-6.77 5.23 1.7 3.81.07 8.62-4.61 8.71a24.06 24.06 0 0 1 -6.78-.93c-.56-.18-1.3-1-2-.66-2.31 1.32-.43 4.5.77 6 3.28 4 8.61 6.89 13.82 5.33 9.71-2.94 13.64-16.98 5.57-23.68z" fill="#e1e3e5"/><g fill="#5d6466"><path d="m230.76 197.13a12.2 12.2 0 0 1 -8.17-3 12.58 12.58 0 0 1 -3.54-12.13 13.17 13.17 0 0 1 8.32-8.82c3.95-1.45 7.07.34 9.86 2.49a12.89 12.89 0 0 1 5.14 10.73 11 11 0 0 1 -5.33 9 11.69 11.69 0 0 1 -6.28 1.73zm-6.58-4.79a9.91 9.91 0 0 0 11.61 1 8.75 8.75 0 0 0 4.21-7.04 10.7 10.7 0 0 0 -4.23-8.76c-2.68-2.06-4.88-3.14-7.61-2.14a10.78 10.78 0 0 0 -6.85 7.18 10.16 10.16 0 0 0 2.87 9.76z"/><path d="m230.68 190.12a4.48 4.48 0 0 1 -.9-8.89h.11.11a4.48 4.48 0 0 1 1.34 8.86 3.68 3.68 0 0 1 -.66.03zm-.41-6.59h-.05a2.06 2.06 0 1 0 .1 0z"/><path d="m238.33 107.63a17.17 17.17 0 0 1 -17-20.41 1.16 1.16 0 0 1 1.37-.93 1.18 1.18 0 0 1 .94 1.37 14.83 14.83 0 0 0 17.36 17.34 1.17 1.17 0 0 1 .43 2.31 16.8 16.8 0 0 1 -3.1.32z"/><path d="m242.7 105.74a1.26 1.26 0 0 1 -.59-.15 1.17 1.17 0 0 1 -.43-1.61c2.81-4.94 8.29-8.74 15.42-10.7a83.75 83.75 0 0 1 12.22-2.1c2-.24 4-.48 6-.8 7.36-1.16 12.51-3.21 16.23-6.45a1.18 1.18 0 0 1 1.54 1.78c-5.34 4.65-12.49 6.22-17.4 7-2 .32-4.11.57-6.11.81a80.66 80.66 0 0 0 -11.87 2c-6.53 1.79-11.5 5.21-14 9.6a1.18 1.18 0 0 1 -1.01.62z"/><path d="m295.65 101.64a1.24 1.24 0 0 1 -.53-.12 1.18 1.18 0 0 1 -.52-1.58 12 12 0 0 0 -2.19-13.5 1.17 1.17 0 0 1 0-1.66 1.18 1.18 0 0 1 1.67 0 14.37 14.37 0 0 1 2.62 16.22 1.17 1.17 0 0 1 -1.05.64z"/><path d="m305.71 122.29a1.18 1.18 0 0 1 -1.13-.86l-.2-.72a1.06 1.06 0 0 1 0-.39 30.89 30.89 0 0 0 -10.13-16.53 1.18 1.18 0 0 1 -.13-1.66 1.16 1.16 0 0 1 1.65-.14 33.29 33.29 0 0 1 11.14 18.9 1.18 1.18 0 0 1 -.88 1.37z"/><path d="m314.38 127.15a1.17 1.17 0 0 1 -.5-2.24 11.54 11.54 0 0 0 6.49-9.74 3.4 3.4 0 0 0 -.71-2.6 3.15 3.15 0 0 0 -2.53-.34 8.63 8.63 0 0 0 -6.68 7.81 1.18 1.18 0 0 1 -2.35-.09 10.93 10.93 0 0 1 8.56-10 5.21 5.21 0 0 1 4.54.88 5.29 5.29 0 0 1 1.52 4.47 14 14 0 0 1 -7.85 11.7 1.09 1.09 0 0 1 -.49.15z"/><path d="m279.74 165.07a27.11 27.11 0 0 1 -13.22-3.26c-5-2.77-8.1-6.72-11.22-11.79-7.43-12.1-12.17-26.51-14.08-42.82a1.17 1.17 0 1 1 2.33-.28c1.88 16 6.51 30.06 13.76 41.87 2.92 4.76 5.79 8.44 10.35 11 10.75 5.94 22.74 1.32 25 .34a31.69 31.69 0 0 0 12.66-10 1.17 1.17 0 1 1 1.87 1.42 34 34 0 0 1 -13.6 10.76 37.11 37.11 0 0 1 -13.85 2.76z"/><path d="m234.24 96.22a1.15 1.15 0 0 1 -.7-.23 16.52 16.52 0 0 1 -6.35-15.18 1.18 1.18 0 1 1 2.33.32 14.08 14.08 0 0 0 5.42 13 1.19 1.19 0 0 1 .25 1.65 1.18 1.18 0 0 1 -.95.44z"/><path d="m236.67 86a1.11 1.11 0 0 1 -.44-.08 6.93 6.93 0 0 1 -3.95-8.17 1.18 1.18 0 1 1 2.25.68 4.56 4.56 0 0 0 2.57 5.3 1.18 1.18 0 0 1 -.43 2.27z"/><path d="m319.59 111.36a.75.75 0 0 1 -.21 0 1.18 1.18 0 0 1 -.95-1.36l3.43-19.2c.4-2.29.68-4.32-.11-6s-2.5-2.7-4.5-3.82l-16.95-9.49c-.84-.47-1.67-.95-2.5-1.44-4.12-2.4-8.38-4.87-13.14-5.34-4.55-.45-9.23 1.23-13.36 2.71l-33 11.85a1.18 1.18 0 1 1 -.8-2.21l33-11.85c4.35-1.57 9.29-3.34 14.38-2.85 5.28.52 9.76 3.14 14.09 5.66.83.48 1.65 1 2.47 1.42l16.96 9.56c1.82 1 4.32 2.42 5.48 4.86s.66 5.3.29 7.38l-3.42 19.2a1.18 1.18 0 0 1 -1.16.92z"/><path d="m315.5 121.36a1.23 1.23 0 0 1 -.59-.15 1.18 1.18 0 0 1 -.43-1.61c.18-.32.34-.64.49-1l-.44.25a1.17 1.17 0 1 1 -1.16-2l2.89-1.65a1.17 1.17 0 0 1 1.75 1.17 12 12 0 0 1 -1.5 4.43 1.17 1.17 0 0 1 -1.01.56z"/><path d="m314.89 172.66a1.17 1.17 0 0 1 -1.07-.68 50.53 50.53 0 0 1 1.69-45.47 1.18 1.18 0 1 1 2.05 1.15 48.19 48.19 0 0 0 -1.56 43.34 1.17 1.17 0 0 1 -.57 1.56 1.09 1.09 0 0 1 -.54.1z"/><path d="m292.52 180.81a.9.9 0 0 1 -.28 0 1.17 1.17 0 0 1 -.87-1.41 25.16 25.16 0 0 0 -1.7-16.48 1.16 1.16 0 0 1 .56-1.56 1.18 1.18 0 0 1 1.57.56 27.5 27.5 0 0 1 1.86 18 1.18 1.18 0 0 1 -1.14.89z"/><path d="m271.16 142.61a7 7 0 0 1 -2.48-.38 3.14 3.14 0 0 1 -2-2.45 4 4 0 0 1 .28-1.76v-.08a16.86 16.86 0 0 0 -2.79-15.38 1.18 1.18 0 0 1 1.84-1.47 19 19 0 0 1 3.19 17.58v.08a2.47 2.47 0 0 0 -.17.75c0 .19.27.43.57.55a5.26 5.26 0 0 0 1.64.21 1.18 1.18 0 0 1 0 2.35z"/><path d="m256.39 134.38a2.15 2.15 0 0 1 -1.54-.63 2.43 2.43 0 0 1 0-3.18 3.36 3.36 0 0 1 1.72-1.1c-.23-.8-.53-1.19-.76-1.21a1.8 1.8 0 0 0 -.8.32 10.59 10.59 0 0 0 -2.81 2.42 1.18 1.18 0 1 1 -1.85-1.45 12.58 12.58 0 0 1 3.38-3 3.65 3.65 0 0 1 2.25-.67c1.08.1 2.48.85 3 3.82a5 5 0 0 1 -.19 3.15 2.79 2.79 0 0 1 -2 1.47 2.34 2.34 0 0 1 -.4.06z"/><path d="m286.16 125.33a1.87 1.87 0 0 1 -.4 0 2.11 2.11 0 0 1 -1.49-1.1 2.6 2.6 0 0 1 .26-2.67 4.87 4.87 0 0 1 1.13-1.1v-.12a1.66 1.66 0 0 0 -2.88-.93 8.45 8.45 0 0 0 -1.72 2.08 1.18 1.18 0 1 1 -2-1.3 10.25 10.25 0 0 1 2.25-2.65 4 4 0 0 1 6.57 2.15 10.14 10.14 0 0 1 .25 3.29 2.54 2.54 0 0 1 -.75 2 1.89 1.89 0 0 1 -1.22.35z"/><path d="m245.7 124.49a1.2 1.2 0 0 1 -.84-.35 1.18 1.18 0 0 1 0-1.66 27.22 27.22 0 0 1 6.38-4.69 1.17 1.17 0 0 1 1.59.49 1.19 1.19 0 0 1 -.49 1.59 25 25 0 0 0 -5.82 4.28 1.16 1.16 0 0 1 -.82.34z"/><path d="m277.26 110.73a1.18 1.18 0 0 1 -.35-2.3 23.28 23.28 0 0 1 9.31-1 1.18 1.18 0 0 1 -.24 2.34 20.91 20.91 0 0 0 -8.36.85 1.13 1.13 0 0 1 -.36.11z"/><path d="m274.91 152.1a9.45 9.45 0 0 1 -2-.21 1.18 1.18 0 1 1 .49-2.3 7.32 7.32 0 0 0 5.59-1.1 1.18 1.18 0 0 1 1.33 1.94 9.63 9.63 0 0 1 -5.41 1.67z"/><path d="m278.07 157.05a1.19 1.19 0 0 1 -1.1-.74l-.39-1a1.18 1.18 0 0 1 2.19-.87l.39 1a1.18 1.18 0 0 1 -.66 1.53 1.31 1.31 0 0 1 -.43.08z"/><path d="m156.48 381.13a1.18 1.18 0 0 1 -1.18-1.2c.35-16.87 2.11-41.56 8.5-63.4a1.19 1.19 0 0 1 1.46-.8 1.17 1.17 0 0 1 .8 1.46c-6.32 21.6-8.06 46.07-8.41 62.79a1.17 1.17 0 0 1 -1.17 1.15z"/><path d="m167.71 309.59a1.14 1.14 0 0 1 -.41-.07 1.18 1.18 0 0 1 -.69-1.52c1.94-5.18 5-11.75 11.29-16.61 8.92-6.88 22.34-5.24 33.12-3.91 1.66.2 3.26.4 4.8.56 14.67 1.54 29.31 4.78 43.48 7.91l6.54 1.44a204.68 204.68 0 0 0 49.44 4.34 1.19 1.19 0 0 1 1.21 1.15 1.17 1.17 0 0 1 -1.14 1.21 208 208 0 0 1 -50-4.4l-6.54-1.44c-14.1-3.12-28.68-6.35-43.22-7.87-1.55-.17-3.17-.36-4.83-.57-10.9-1.33-23.24-2.85-31.41 3.44-5.84 4.5-8.69 10.69-10.52 15.58a1.17 1.17 0 0 1 -1.12.76z"/><path d="m181.22 388.78a1.2 1.2 0 0 1 -.45-.09 1.18 1.18 0 0 1 -.64-1.54c.78-1.9 1.54-3.84 2.26-5.77a1.17 1.17 0 1 1 2.2.82c-.72 1.95-1.49 3.92-2.28 5.85a1.19 1.19 0 0 1 -1.09.73z"/><path d="m185.55 377.12a1.15 1.15 0 0 1 -.37-.06 1.18 1.18 0 0 1 -.75-1.49 183.59 183.59 0 0 0 6.22-23.87 184.51 184.51 0 0 0 3.12-28.05 1.18 1.18 0 0 1 1.71-1 127 127 0 0 0 91.52 9.71 1.17 1.17 0 0 1 1.45.83 1.19 1.19 0 0 1 -.83 1.44 129.26 129.26 0 0 1 -91.54-9.07 185.92 185.92 0 0 1 -9.39 50.75 1.16 1.16 0 0 1 -1.14.81z"/><path d="m294.53 334.62a1.18 1.18 0 0 1 -1.17-1.1 1.16 1.16 0 0 1 1.09-1.25l8-.56a1.16 1.16 0 0 1 1.25 1.09 1.18 1.18 0 0 1 -1.09 1.26l-8 .55z"/><path d="m321.45 307.33a4.4 4.4 0 0 1 -4.29-2.47 1.18 1.18 0 0 1 .65-1.53 1.16 1.16 0 0 1 1.53.65c.39.94 1.92 1.19 3.12.87a14.77 14.77 0 0 0 2.14-.84 14.19 14.19 0 0 1 2.76-1 14.51 14.51 0 0 1 5.3 0l.84.11a37 37 0 0 0 15.25-1.36 1.18 1.18 0 0 1 .69 2.25 39.43 39.43 0 0 1 -16.23 1.44l-.85-.11a12.74 12.74 0 0 0 -4.47-.08 12.29 12.29 0 0 0 -2.31.89 15.69 15.69 0 0 1 -2.52 1 6.13 6.13 0 0 1 -1.61.18z"/><path d="m315 347.78h-4c-11.47-.05-23.34-.11-35-1.35-5.69-.61-12.64-2-15.94-7.41a1.18 1.18 0 0 1 2-1.22c2.76 4.53 9 5.74 14.18 6.29 11.53 1.23 23.34 1.29 34.76 1.34 11.75.06 23.89.12 35.07-4 5-1.84 8.65-4.18 11.12-7.16 1.07-1.28 1.52-2.39 1.34-3.29-.25-1.22-1.73-2-3-2.06a11.78 11.78 0 0 0 -4.76 1.28 1.18 1.18 0 0 1 -.92-2.17 13.49 13.49 0 0 1 5.77-1.46c2.22.09 4.72 1.48 5.22 3.94.33 1.64-.28 3.41-1.83 5.27-2.74 3.3-6.71 5.87-12.12 7.86-10.28 3.75-21.58 4.14-31.89 4.14z"/><path d="m308.05 334.07h-2.55a1.17 1.17 0 0 1 -1.16-1.19 1.19 1.19 0 0 1 1.19-1.16 192.7 192.7 0 0 0 22.4-1 1.16 1.16 0 0 1 1.29 1 1.18 1.18 0 0 1 -1.05 1.3 195.74 195.74 0 0 1 -20.12 1.05z"/><path d="m308 363.38a21.24 21.24 0 0 1 -20.59-15.84 1.16 1.16 0 0 1 .83-1.43 1.17 1.17 0 0 1 1.44.83 18.93 18.93 0 0 0 23.54 13.36 14.1 14.1 0 0 0 7.13-4.49 9 9 0 0 0 1.89-7.68 1.18 1.18 0 0 1 2.28-.59 11.28 11.28 0 0 1 -2.33 9.74 16.28 16.28 0 0 1 -8.32 5.28 21.33 21.33 0 0 1 -5.87.82z"/><path d="m297.88 387.38h-.16a1.19 1.19 0 0 1 -1-1.13l-.86-25.85a1.16 1.16 0 0 1 1.13-1.21 1.18 1.18 0 0 1 1.22 1.13l.79 24.38a1.2 1.2 0 0 1 .22 1.1l-.23.74a1.18 1.18 0 0 1 -1.11.84z"/><path d="m318.57 383a1.18 1.18 0 0 1 -1.17-1.13l-.87-21.5a1.18 1.18 0 1 1 2.35-.1l.82 20.32a1.12 1.12 0 0 1 .12.63l-.08.72a1.17 1.17 0 0 1 -1.17 1.06z"/><path d="m315 387.36a1.19 1.19 0 0 1 -1.16-.95 3.31 3.31 0 0 0 -2.28-2.25 11.12 11.12 0 0 0 -4.09-.32h-.36a16.42 16.42 0 0 1 -4.52-.18 1.18 1.18 0 0 1 -.34-2.16l9-5.37-11.19-1.25a1.18 1.18 0 0 1 .27-2.34l14.67 1.67a1.18 1.18 0 0 1 .47 2.18l-8.63 5.13h.16.36a13 13 0 0 1 5 .45 5.6 5.6 0 0 1 3.82 4 1.18 1.18 0 0 1 -.92 1.38z"/><path d="m277.74 376.82a1.18 1.18 0 0 1 -1.17-1.19l.16-11a1.18 1.18 0 0 1 2.36 0l-.17 11a1.18 1.18 0 0 1 -1.18 1.19z"/><path d="m283.16 371.11-10.16-.19a1.19 1.19 0 0 1 -1.16-1.2 1.22 1.22 0 0 1 1.2-1.16l10.2.2a1.18 1.18 0 0 1 0 2.35z"/><path d="m231.91 383.29h-.27a1.18 1.18 0 0 1 -.89-1 242.54 242.54 0 0 1 -2.75-44.71 1.19 1.19 0 0 1 1.21-1.14 1.17 1.17 0 0 1 1.14 1.21 239.81 239.81 0 0 0 2.49 42.92l.1.07a1.18 1.18 0 0 1 .27 1.64l-.37.52a1.18 1.18 0 0 1 -.93.49z"/><path d="m259.26 388h-.06a1.17 1.17 0 0 1 -1.11-1.24 243 243 0 0 0 -2-47.38 1.18 1.18 0 1 1 2.33-.33 246.11 246.11 0 0 1 2 47.84 1.18 1.18 0 0 1 -1.16 1.11z"/><path d="m336.28 288.29a48.34 48.34 0 0 1 -7-.49 10.84 10.84 0 0 1 -6.55-2.89c-3.33-3.39-2.23-7.72-.84-13.19a50.65 50.65 0 0 0 2.07-15.61c-.24-4.89-1.52-11.67-2.64-17.65-1.51-8-2.27-12.27-1.57-13.85a7.44 7.44 0 0 1 3-3.47 11.22 11.22 0 0 1 7.06-1.75h.08c7.91.34 33.19-2.57 40.76-5a8.37 8.37 0 0 1 5.24-.2 9.2 9.2 0 0 1 5 4.66c7.19 12.81 10.7 19.33 11.71 27.48a56.48 56.48 0 0 1 -2 22.86c-2 6.77-6.48 9.41-13.1 11.48-1.29.4-2.61.78-4 1.17a1.18 1.18 0 0 1 -1.44-.83 1.17 1.17 0 0 1 .83-1.44c1.4-.38 2.69-.76 4-1.15 6.17-1.93 9.84-4.08 11.54-9.89a54 54 0 0 0 1.95-21.91c-.95-7.71-4.38-14.08-11.42-26.62a7.05 7.05 0 0 0 -3.66-3.57 6 6 0 0 0 -3.72.17c-8 2.62-33.38 5.53-41.64 5.18h-.09a9 9 0 0 0 -5.85 1.32l-.15.09a5 5 0 0 0 -2 2.36c-.42 1.09.77 7.41 1.73 12.48 1.14 6.05 2.43 12.91 2.68 18a52.67 52.67 0 0 1 -2.14 16.29c-1.42 5.6-2.06 8.63.24 11a8.76 8.76 0 0 0 5.21 2.2c10.27 1.5 21.42-1 31.27-3.13a1.17 1.17 0 1 1 .5 2.29c-7.83 1.69-16.52 3.61-25.06 3.61z"/><path d="m334.85 234.52a1.18 1.18 0 0 1 -1.1-.76 19.59 19.59 0 0 0 -6.32-8.45 1.19 1.19 0 0 1 -.22-1.65 1.17 1.17 0 0 1 1.65-.22 21.65 21.65 0 0 1 7.09 9.48 1.18 1.18 0 0 1 -.68 1.52 1.25 1.25 0 0 1 -.42.08z"/><path d="m330.18 287.46a1.2 1.2 0 0 1 -.84-.35 1.18 1.18 0 0 1 0-1.66c5.26-5.2 8.49-12.93 9.11-21.77s-1.36-17.57-3.14-24.25a1.18 1.18 0 0 1 2.27-.61c1.83 6.86 3.85 15.89 3.21 25-.65 9.4-4.13 17.67-9.79 23.27a1.16 1.16 0 0 1 -.82.37z"/><path d="m337 335.43a8 8 0 0 1 -3.12-.57 6.93 6.93 0 0 1 -4.14-4.37 5.87 5.87 0 0 1 .92-5.08 15.52 15.52 0 0 1 3.58-3.35l.35-.27a69.92 69.92 0 0 0 24.13-34 68 68 0 0 0 2.83-13 69.7 69.7 0 0 0 -1.15-23.41c-.1-.47-.24-.94-.37-1.42-.6-2.12-1.35-4.76.6-7a5.26 5.26 0 0 1 4.37-1.88 7.08 7.08 0 0 1 5.21 3.26 17.44 17.44 0 0 1 2.13 6.19c1.94 9.67 3.68 20 1.88 30.21-1.67 9.55-6.35 18.31-11 26.46-1.27 2.23-2.62 4.46-3.92 6.62-1.69 2.82-3.44 5.73-5 8.65l-.33.59c-2 3.7-3.94 7.2-8 9.61a19.08 19.08 0 0 1 -8.97 2.76zm24-46.92a72.38 72.38 0 0 1 -25 35.16l-.35.26a14 14 0 0 0 -3.07 2.83 3.53 3.53 0 0 0 -.59 3.07 4.64 4.64 0 0 0 2.78 2.86c2.55 1.06 6.95-.22 10-2 3.49-2.09 5.17-5.17 7.12-8.73l.33-.6c1.62-2.95 3.38-5.88 5.09-8.72 1.29-2.15 2.63-4.37 3.88-6.58 4.55-8 9.13-16.51 10.73-25.69 1.73-9.85 0-19.9-1.86-29.34a15.36 15.36 0 0 0 -1.8-5.37 4.74 4.74 0 0 0 -3.4-2.2 2.85 2.85 0 0 0 -2.44 1.08c-1 1.19-.73 2.61-.11 4.81.15.52.29 1 .41 1.55a72 72 0 0 1 1.19 24.2 70.92 70.92 0 0 1 -2.91 13.41z"/><path d="m365.78 250.53h-.19a1.75 1.75 0 0 1 -1.34-1 1.71 1.71 0 0 1 .16-1.67v-.06a1.74 1.74 0 0 1 2.91.47 1.75 1.75 0 0 1 -1.61 2.34z"/><path d="m337.45 334.67a1.18 1.18 0 0 1 -1.18-1.2 3.45 3.45 0 0 1 6.38-1.75 1.18 1.18 0 1 1 -2 1.25 1.09 1.09 0 0 0 -2 .55 1.18 1.18 0 0 1 -1.2 1.15z"/><path d="m354.29 300.76a1.15 1.15 0 0 1 -.31 0 1.18 1.18 0 0 1 -.83-1.44c.45-1.67 0-3.5-.58-5.43l-.17-.63c-.6-2.25-1.11-5.15.35-7.52a1.18 1.18 0 0 1 2 1.24c-1 1.6-.57 3.87-.08 5.67l.16.62c.56 2 1.2 4.37.58 6.66a1.16 1.16 0 0 1 -1.12.83z"/><path d="m337.79 141.69a1.16 1.16 0 0 1 -.62-.17 1.2 1.2 0 0 1 -.55-1.16l.64-4.81a6.72 6.72 0 0 1 -5.73-2.73 11.19 11.19 0 0 1 -1.7-7.51c.4-5.5 3.75-11.3 10.27-11a22.06 22.06 0 0 1 2.68.33 16 16 0 0 0 3.07.3c1.33 0 2.66-.12 4-.2 1.94-.11 3.94-.23 5.94-.25 2.83 0 6.34.27 8.15 2.9 1.21 1.78 1.17 4.06 1.13 5.58-.06 2.75-.23 5.41-1.73 7.66-2.33 3.5-6.82 4.33-10.18 4.42-1 0-2 0-2.94 0a24.21 24.21 0 0 0 -6.6.45 15.24 15.24 0 0 1 -5.16 6 1.14 1.14 0 0 1 -.67.19zm.87-8.94a1.25 1.25 0 0 1 .67.2 1.19 1.19 0 0 1 .5 1.13l-.47 3.52a12.78 12.78 0 0 0 2.32-3.59 1.17 1.17 0 0 1 .73-.66 24.35 24.35 0 0 1 7.85-.7h2.83c2.8-.08 6.51-.72 8.29-3.38 1.14-1.72 1.28-4 1.33-6.4a7.16 7.16 0 0 0 -.73-4.2c-1.17-1.72-3.92-1.91-6.18-1.88-1.93 0-3.91.14-5.82.25-1.35.07-2.7.15-4.05.2a16.6 16.6 0 0 1 -3.53-.33 22.47 22.47 0 0 0 -2.4-.3c-4.94-.21-7.5 4.3-7.82 8.85a8.89 8.89 0 0 0 1.25 6c1 1.39 3.13 2.31 4.66 1.47a1.18 1.18 0 0 1 .57-.18z"/><path d="m339.34 127.41a2 2 0 0 1 -1.68-1 2 2 0 0 1 0-2.08 1.19 1.19 0 0 1 1-.53 1.81 1.81 0 0 1 1.91.23 1.86 1.86 0 0 1 .54 2 1.91 1.91 0 0 1 -1.69 1.35z"/><path d="m346.46 126.83a1.76 1.76 0 0 1 -1.4-.68 1.78 1.78 0 0 1 -.18-1.8 1.81 1.81 0 0 1 1.46-1.1 1.18 1.18 0 0 1 .86.26 1.86 1.86 0 0 1 .35.22 1.7 1.7 0 0 1 -.72 3.06 1.55 1.55 0 0 1 -.37.04z"/><path d="m352.81 126.91a2.31 2.31 0 0 1 -2.22-1.62 2.11 2.11 0 0 1 .4-1.88 1.92 1.92 0 0 1 3.34.45 1.87 1.87 0 0 1 -.09 1.68 1.17 1.17 0 0 1 -.88 1.3 2.08 2.08 0 0 1 -.55.07z"/><path d="m232.88 64.37a3.19 3.19 0 0 1 -2.3-.93 3.41 3.41 0 0 1 1.06-5.32 1.17 1.17 0 0 1 .78 0 1.22 1.22 0 0 1 .75-.21 3.25 3.25 0 0 1 .31 6.46 4 4 0 0 1 -.6 0zm-.1-4.2a1.43 1.43 0 0 1 -.21.12.92.92 0 0 0 -.48.69.8.8 0 0 0 1 1 .79.79 0 0 0 .6-1.29.94.94 0 0 0 -.68-.5.85.85 0 0 1 -.23-.02z"/><path d="m107 322.13a1.18 1.18 0 0 1 0-2.35l5.83-.22a1.18 1.18 0 0 1 .09 2.35l-5.83.22z"/><path d="m119.52 321.47c-.22 0-.45 0-.67 0a1.18 1.18 0 0 1 -1.11-1.24 1.19 1.19 0 0 1 1.26-1.13 9.53 9.53 0 0 0 4.81-1 1.19 1.19 0 0 1 1.58.54 1.18 1.18 0 0 1 -.54 1.57 11.93 11.93 0 0 1 -5.33 1.26z"/><path d="m129.49 317.67a1.19 1.19 0 0 1 -.92-1.92l2.71-3.35a1.17 1.17 0 1 1 1.83 1.47l-2.71 3.36a1.16 1.16 0 0 1 -.91.44z"/><path d="m133.73 309.57a1.25 1.25 0 0 1 -.42-.08 1.18 1.18 0 0 1 -.68-1.52 12.43 12.43 0 0 0 .82-4.3 1.18 1.18 0 1 1 2.35 0 14.68 14.68 0 0 1 -1 5.12 1.18 1.18 0 0 1 -1.07.78z"/></g></svg>